<?xml version="1.0" standalone="no"?>
<!DOCTYPE svg PUBLIC "-//W3C//DTD SVG 1.1//EN" "http://www.w3.org/Graphics/SVG/1.1/DTD/svg11.dtd" >
<svg xmlns="http://www.w3.org/2000/svg" xmlns:xlink="http://www.w3.org/1999/xlink" version="1.1">
<metadata>
Created by FontForge 20141024 at Sat Oct  3 05:11:55 2015
 By Jimmy Warting
Creative Commons CC BY-SA 2012
</metadata>
<defs>
<font id="Entypo" horiz-adv-x="600" >
  <font-face 
    font-family="Entypo"
    font-weight="400"
    font-stretch="normal"
    units-per-em="1000"
    panose-1="0 0 0 0 0 0 0 0 0 0"
    ascent="750"
    descent="-250"
    bbox="50 -0.0758988 551.248 500.775"
    underline-thickness="0"
    underline-position="-100"
    stemh="50"
    stemv="50"
    unicode-range="U+2016-1F6C8"
  />
<missing-glyph horiz-adv-x="500" 
 />
    <glyph glyph-name=".notdef" horiz-adv-x="500" 
 />
    <glyph glyph-name="mouse" unicode="&#xe789;" horiz-adv-x="381" 
d="M325 140c19 -53 -16 -112 -78 -134c-62 -19 -124 9 -139 63l-53 192c-13 46 7 94 45 120l-48 93c-4 9 -1 20 7 24c9 5 19 2 24 -7l49 -96c53 14 109 -14 128 -66zM163 277c18 6 28 26 22 45s-25 29 -44 23c-18 -6 -28 -26 -22 -45c6 -18 25 -29 44 -23z" />
    <glyph glyph-name="address" unicode="&#xe723;" 
d="M263 475c5 0 10 -4 10 -10v-430c0 -5 -5 -10 -10 -10h-23c-5 0 -10 5 -10 10v220h-88c-4 0 -10 1 -14 3c-5 1 -10 4 -13 6l-60 41c-3 2 -5 5 -5 8s2 6 5 8l60 41c3 2 8 5 13 6c4 2 10 2 14 2h88v95c0 6 5 10 10 10h23zM545 371c3 -2 5 -5 5 -8s-2 -6 -5 -8l-59 -41
c-4 -2 -8 -5 -13 -6c-5 -2 -10 -3 -14 -3h-151l-20 115h171c4 0 9 0 14 -2s9 -4 13 -6z" />
    <glyph glyph-name="mail" unicode="&#x2709;" horiz-adv-x="550" 
d="M65 368c-12 7 -24 27 -1 27h423c22 0 11 -20 -2 -27c-12 -6 -181 -97 -187 -100c-6 -4 -15 -5 -23 -5s-16 1 -23 5c-6 3 -175 94 -187 100zM490 318c10 5 10 -1 10 -5v-184c0 -10 -14 -24 -25 -24h-400c-11 0 -25 14 -25 24v184c0 4 0 10 10 5c14 -7 184 -96 192 -100
c9 -5 15 -5 23 -5s14 0 23 5c8 4 179 93 192 100z" />
    <glyph glyph-name="pencil" unicode="&#x270e;" horiz-adv-x="491" 
d="M409 415c36 -37 31 -64 31 -64l-126 -126l-145 -144l-119 -26l25 120l145 144l126 126s27 6 63 -30zM162 95l12 12s-1 22 -26 47c-24 25 -47 25 -47 25l-11 -12l-9 -40c7 -4 15 -9 23 -17c9 -9 14 -16 18 -24z" />
    <glyph glyph-name="feather" unicode="&#x2712;" horiz-adv-x="450" 
d="M81 6c-3 -11 -22 -6 -21 13c1 24 10 72 25 113c-41 63 -40 111 -26 158c10 -31 44 -99 54 -94s-22 143 7 203c16 32 65 70 92 82c-25 -48 -23 -101 -8 -102s64 119 95 121c32 3 89 -27 98 -47c8 -16 -1 -62 -20 -81c-37 -37 -107 -29 -130 -43c-10 -6 15 -45 94 -27
c-63 -91 -159 -68 -161 -81s40 -45 75 -34c-43 -78 -71 -58 -139 -69c-15 -51 -27 -87 -35 -112z" />
    <glyph glyph-name="attach" unicode="&#x1f4ce;" horiz-adv-x="569" 
d="M172 5c-32 0 -63 13 -85 36c-44 43 -56 118 5 178c35 36 177 177 248 248c25 25 57 35 87 27s55 -33 63 -63c8 -31 -2 -63 -27 -88l-237 -237c-13 -13 -28 -21 -44 -23c-15 -1 -29 3 -40 14c-18 18 -21 53 10 83l166 167c7 7 18 7 25 0s7 -18 0 -25l-166 -166
c-15 -15 -16 -28 -10 -35c3 -2 7 -4 12 -3c7 1 15 5 23 13l237 237c16 16 22 35 17 54c-5 18 -20 33 -38 38s-37 -2 -54 -18l-247 -247c-47 -47 -36 -100 -6 -130c30 -29 83 -40 129 6l248 247c7 7 18 7 25 0c7 -6 7 -17 0 -24l-248 -248c-29 -29 -62 -41 -93 -41z" />
    <glyph glyph-name="inbox" unicode="&#xe777;" horiz-adv-x="601" 
d="M534 274c12 -13 19 -23 15 -36l-14 -77c-3 -13 -17 -23 -31 -23h-408c-14 0 -28 10 -31 23l-14 77c-3 13 3 23 16 36c9 11 57 57 78 78c7 7 17 11 26 11h129h129s19 -4 26 -11c21 -21 69 -67 79 -78zM401 258h89l-51 57h-278l-51 -57h89c2 0 5 -2 6 -4l20 -50h150l20 50
c1 2 4 4 6 4z" />
    <glyph glyph-name="reply" unicode="&#xe712;" horiz-adv-x="550" 
d="M500 80c-62 110 -150 121 -269 121v-109l-181 167l181 161v-96c219 0 269 -244 269 -244z" />
    <glyph glyph-name="reply-all" unicode="&#xe713;" 
d="M231 353l-106 -94l106 -98v-69l-181 167l181 161v-67zM356 324c185 0 194 -244 194 -244c-62 110 -112 121 -194 121v-109l-181 167l181 161v-96z" />
    <glyph glyph-name="forward" unicode="&#x27a6;" horiz-adv-x="550" 
d="M320 201c-120 0 -208 -11 -270 -121c0 0 50 244 270 244v96l180 -161l-180 -167v109z" />
    <glyph glyph-name="user" unicode="&#x1f464;" horiz-adv-x="570" 
d="M418 139c62 -22 102 -45 102 -61v-53h-235h-235v53s40 39 102 61c62 23 81 42 81 82c0 25 -18 17 -27 61c-3 19 -20 1 -23 43c0 17 9 21 9 21s-4 25 -6 44c-2 24 14 85 99 85c86 0 102 -61 99 -85c-1 -19 -6 -44 -6 -44s9 -4 9 -21c-3 -42 -20 -24 -23 -43
c-8 -44 -27 -36 -27 -61c0 -40 20 -59 81 -82z" />
    <glyph glyph-name="users" unicode="&#x1f465;" 
d="M550 30h-112v75c0 36 -11 44 -92 85c15 11 20 23 20 42c0 17 -11 11 -16 42c-2 13 -12 0 -14 29c0 12 6 15 6 15s-3 17 -4 30c-2 17 8 59 59 59c52 0 62 -42 60 -59c-1 -13 -4 -30 -4 -30s6 -3 6 -15c-2 -29 -12 -16 -14 -29c-5 -31 -16 -25 -16 -42c0 -28 11 -41 49 -57
c37 -15 57 -25 65 -40c6 -10 7 -105 7 -105zM306 161c49 -21 91 -41 91 -62v-69h-347v92c0 23 27 33 42 39c50 21 66 38 66 76c0 22 -16 15 -22 56c-3 17 -16 0 -19 39c0 15 7 19 7 19s-3 23 -5 41c-2 22 11 78 80 78s82 -56 80 -78c-2 -18 -5 -41 -5 -41s7 -4 7 -19
c-3 -39 -16 -22 -19 -39c-6 -41 -22 -34 -22 -56c0 -38 16 -55 66 -76z" />
    <glyph glyph-name="add-user" unicode="&#xe700;" 
d="M360 139c62 -22 90 -45 90 -61v-53h-400v101c15 6 33 11 41 13c62 23 82 42 82 82c0 25 -19 17 -27 61c-4 19 -21 1 -24 43c0 17 9 21 9 21s-4 25 -6 44c-3 24 14 85 100 85c87 0 103 -61 101 -85c-2 -19 -7 -44 -7 -44s9 -4 9 -21c-3 -42 -20 -24 -23 -43
c-9 -44 -28 -36 -28 -61c0 -40 20 -59 83 -82zM475 275h75v-50h-75v-75h-50v75h-75v50h75v75h50v-75z" />
    <glyph glyph-name="vcard" unicode="&#xe722;" 
d="M500 450c28 0 50 -22 50 -50v-300c0 -27 -22 -50 -50 -50h-400c-27 0 -50 23 -50 50v300c0 28 23 50 50 50h400zM500 100v300h-400v-300h400zM275 198v-45h-125v45h125zM275 273v-45h-125v45h125zM275 348v-45h-125v45h125zM448 188c2 0 2 -35 2 -35h-125s0 35 3 35
c0 0 42 11 42 33c0 21 -27 29 -27 72c0 34 10 55 45 55c34 0 45 -21 45 -55c0 -43 -28 -51 -28 -72c0 -22 43 -33 43 -33z" />
    <glyph glyph-name="export" unicode="&#xe715;" 
d="M425 105v28l50 41v-94c0 -13 -11 -25 -25 -25h-375c-14 0 -25 12 -25 25v275c0 14 11 25 25 25h144c-37 -27 -54 -50 -54 -50h-65v-225h325zM384 279c-109 0 -144 -17 -201 -111c0 0 0 199 201 199v78l166 -125l-166 -130v89z" />
    <glyph glyph-name="location" unicode="&#xe724;" horiz-adv-x="350" 
d="M175 450c69 0 125 -56 125 -125c0 -119 -125 -275 -125 -275s-125 156 -125 275c0 69 56 125 125 125zM175 256c37 0 68 31 68 68s-31 67 -68 67s-67 -30 -67 -67s30 -68 67 -68z" />
    <glyph glyph-name="map" unicode="&#xe727;" 
d="M542 375c5 -3 8 -9 8 -15v-292c0 -7 -3 -12 -8 -15c-3 -2 -5 -3 -8 -3s-6 1 -9 3l-108 68l-108 -68c-6 -3 -12 -3 -17 0l-109 68l-108 -68c-5 -3 -11 -3 -17 0c-5 3 -8 8 -8 15v292c0 6 3 12 8 15l117 73c5 3 12 3 17 0l108 -68l109 68c5 3 11 3 16 0zM167 150v253
l-84 -52v-253zM284 98v253l-84 52v-253zM401 150v253l-85 -52v-253zM517 98v253l-84 52v-253z" />
    <glyph glyph-name="compass" unicode="&#xe728;" horiz-adv-x="582" 
d="M288 490c132 2 241 -104 243 -236c2 -133 -104 -242 -237 -244c-132 -1 -241 105 -243 237c-2 133 104 242 237 243zM294 61c104 1 188 87 187 192c-2 105 -88 188 -192 187c-105 -1 -189 -87 -187 -192c1 -105 87 -188 192 -187zM177 138c0 0 16 114 65 163
s163 64 163 64s-16 -114 -65 -163c-48 -48 -163 -64 -163 -64zM267 276c-14 -13 -14 -35 0 -49c13 -14 35 -14 49 0c20 20 35 60 44 93c-34 -9 -73 -23 -93 -44z" />
    <glyph glyph-name="direction" unicode="&#x27a2;" horiz-adv-x="530" 
d="M474 459c14 -14 0 -28 -22 -76c-61 -126 -185 -348 -185 -348l-27 190l-190 28s221 123 348 184c47 23 61 37 76 22zM428 411l-152 -140l14 -117z" />
    <glyph glyph-name="hair-cross" unicode="&#x1f3af;" horiz-adv-x="530" 
d="M265 465c119 0 215 -96 215 -215c0 -118 -96 -215 -215 -215s-215 97 -215 215c0 119 96 215 215 215zM283 76c82 9 148 74 156 157h-96v35h96c-8 83 -74 148 -156 157v-97h-35v97c-83 -9 -149 -74 -157 -157h97v-35h-97c8 -83 74 -148 157 -157v97h35v-97z" />
    <glyph glyph-name="share" unicode="&#xe73c;" horiz-adv-x="500" 
d="M375 175c42 0 75 -33 75 -75c0 -41 -33 -75 -75 -75c-41 0 -75 34 -75 75c0 5 1 9 1 13l-130 78c-13 -10 -29 -16 -46 -16c-41 0 -75 34 -75 75c0 42 34 75 75 75c17 0 33 -5 46 -15l130 78c0 4 -1 8 -1 12c0 42 34 75 75 75c42 0 75 -33 75 -75c0 -41 -33 -75 -75 -75
c-17 0 -33 6 -45 16l-131 -78c1 -4 1 -8 1 -13c0 -4 0 -8 -1 -12l131 -78c12 10 28 15 45 15z" />
    <glyph glyph-name="shareable" unicode="&#xe73e;" 
d="M220 250c0 45 36 80 80 80s80 -35 80 -80c0 -44 -36 -80 -80 -80s-80 36 -80 80zM163 280c-2 -9 -8 -30 -33 -30h-80v60h59c26 82 102 140 191 140c55 0 105 -22 142 -58c11 -12 11 -31 0 -43c-12 -11 -31 -11 -43 0c-25 26 -60 41 -99 41c-67 0 -123 -47 -137 -110z
M470 250h80v-60h-59c-26 -81 -101 -140 -191 -140c-55 0 -105 23 -141 59c-12 12 -12 31 0 42c11 12 30 12 42 0c25 -25 60 -41 99 -41c67 0 123 48 137 110c2 10 8 30 33 30z" />
    <glyph glyph-name="heart" unicode="&#x2665;" horiz-adv-x="532" 
d="M446 397c47 -43 47 -113 0 -157l-180 -165l-180 165c-47 44 -47 114 0 157c42 38 110 38 152 0l28 -26l29 26c41 38 109 38 151 0z" />
    <glyph glyph-name="heart-empty" unicode="&#x2661;" horiz-adv-x="532" 
d="M446 396c47 -43 47 -113 0 -156l-180 -165l-180 165c-47 43 -47 113 0 156c42 39 110 39 151 0l29 -26l28 26c42 39 110 39 152 0zM419 266c15 14 21 32 21 52s-3 36 -19 50c-13 13 -32 19 -51 19c-20 0 -38 -11 -52 -24l-52 -46l-53 46c-13 13 -32 24 -51 24
c-20 0 -38 -6 -52 -19c-15 -14 -19 -30 -19 -50s6 -38 22 -52l153 -143z" />
    <glyph glyph-name="star" unicode="&#x2605;" horiz-adv-x="540" 
d="M270 470l60 -168h160l-131 -98l47 -174l-136 104l-136 -104l47 174l-131 98h160z" />
    <glyph glyph-name="star-empty" unicode="&#x2606;" horiz-adv-x="540" 
d="M490 302l-131 -98l47 -174l-136 104l-136 -104l47 174l-131 98h160l60 168l60 -168h160zM270 183l75 -62l-31 89l72 57l-88 -2l-28 101l-27 -101l-88 2l71 -57l-31 -89z" />
    <glyph glyph-name="thumbs-up" unicode="&#x1f44d;" horiz-adv-x="500" 
d="M341 315c4 -8 109 -8 109 -42s-49 -248 -84 -248c-93 0 -216 33 -216 65v171c0 26 78 74 111 97c60 40 103 130 115 115c54 -67 -38 -149 -35 -158zM125 313c17 0 -25 -15 -25 -59v-159c0 -42 42 -57 25 -57c-16 0 -75 8 -75 76v121c0 68 59 78 75 78z" />
    <glyph glyph-name="thumbs-down" unicode="&#x1f44e;" horiz-adv-x="500" 
d="M159 184c-3 8 -109 8 -109 42s50 249 84 249c93 0 216 -34 216 -66v-171c0 -26 -77 -74 -111 -97c-60 -40 -102 -130 -115 -115c-54 67 38 149 35 158zM375 186c-16 0 25 15 25 59v159c0 42 -41 57 -25 57c17 0 75 -8 75 -76v-121c0 -68 -58 -78 -75 -78z" />
    <glyph glyph-name="chat" unicode="&#xe720;" 
d="M195 195h175c2 0 4 1 5 1v-46c0 -27 -22 -50 -50 -50h-125l-75 -75v75h-25c-27 0 -50 23 -50 50v150c0 28 23 50 50 50h95v-155zM500 475c28 0 50 -22 50 -50v-150c0 -27 -22 -50 -50 -50h-25v-75l-75 75h-175v200c0 28 23 50 50 50h225z" />
    <glyph glyph-name="comment" unicode="&#xe718;" horiz-adv-x="500" 
d="M400 425c28 0 50 -22 50 -50v-175c0 -27 -22 -50 -50 -50h-100v-75l-100 75h-100c-27 0 -50 23 -50 50v175c0 28 23 50 50 50h300z" />
    <glyph glyph-name="quote" unicode="&#x275e;" horiz-adv-x="481" 
d="M123 415c169 0 101 -330 -73 -330v35c97 0 146 145 73 145c-40 0 -73 34 -73 75c0 42 33 75 73 75zM333 415c169 0 101 -330 -73 -330v35c97 0 146 145 73 145c-40 0 -73 34 -73 75c0 42 33 75 73 75z" />
    <glyph glyph-name="home" unicode="&#x2302;" horiz-adv-x="551" 
d="M494 243c11 -11 7 -19 -8 -19h-42v-155c0 -11 0 -20 -16 -20h-102v155h-102v-155h-97c-20 0 -21 9 -21 20v155h-42c-15 0 -18 8 -8 19l200 201c11 10 28 10 38 0z" />
    <glyph glyph-name="popup" unicode="&#xe74c;" horiz-adv-x="500" 
d="M400 450c28 0 50 -22 50 -50v-200c0 -27 -22 -50 -50 -50h-200c-27 0 -50 23 -50 50v201c0 27 22 49 50 49h200zM400 200v200h-200v-200h200zM100 250v-150h150v-50h-150c-27 0 -50 23 -50 50v150h50z" />
    <glyph glyph-name="search" unicode="&#x1f50d;" horiz-adv-x="495" 
d="M436 114c9 -10 12 -21 3 -31l-23 -23c-10 -9 -25 -9 -34 0l-95 95c-23 -13 -50 -21 -78 -21c-85 0 -159 74 -159 159c0 86 69 155 154 155c86 0 160 -74 160 -159c0 -30 -8 -57 -23 -81zM97 293c0 -59 53 -112 112 -112s107 48 107 108c0 59 -53 111 -112 111
s-107 -48 -107 -107z" />
    <glyph glyph-name="flashlight" unicode="&#x1f526;" horiz-adv-x="551" 
d="M454 428c42 -42 57 -94 40 -111l-67 -67c-10 -10 -44 -19 -79 -15l-204 -204c-12 -12 -42 -3 -66 22c-24 24 -34 53 -22 65l204 204c-4 35 5 69 15 79l68 68c17 17 69 1 111 -41zM230 224c9 -9 27 -6 40 7s16 31 7 41c-9 9 -28 6 -41 -7s-16 -31 -6 -41zM398 373
c33 -33 76 -41 79 -38c2 3 -7 44 -40 77c-32 32 -73 42 -76 39s5 -46 37 -78z" />
    <glyph glyph-name="print" unicode="&#xe716;" horiz-adv-x="590" 
d="M83 338c-15 0 -12 15 -5 18c7 2 86 32 100 32h22v75h190v-75h23c13 0 92 -30 99 -32c8 -3 10 -18 -4 -18h-425zM513 310c13 0 27 -16 27 -30v-87c0 -14 -14 -30 -27 -30h-50l22 -125h-380l22 125h-49c-14 0 -28 16 -28 30v87c0 14 14 30 28 30h435zM155 88h280l-35 162
h-210z" />
    <glyph glyph-name="bell" unicode="&#x1f514;" horiz-adv-x="500" 
d="M366 288c24 -52 63 -22 82 -76c14 -39 -54 -119 -163 -159c-109 -41 -212 -24 -226 15c-19 53 30 56 15 111c-33 132 -40 187 33 246c26 22 4 35 29 45c25 9 17 -16 51 -15c93 2 122 -45 179 -167zM273 86c97 36 146 103 142 113c-7 19 -69 34 -180 -7
s-148 -96 -142 -112c3 -9 83 -30 180 6zM242 173c7 2 13 5 19 7c0 -1 1 -1 1 -1c9 -26 -14 -59 -53 -73c-30 -11 -60 -7 -76 7c23 20 58 41 109 60z" />
    <glyph glyph-name="link" unicode="&#x1f517;" horiz-adv-x="500" 
d="M197 133c9 10 25 10 35 0c9 -10 9 -25 0 -35l-21 -20c-18 -18 -42 -28 -66 -28c-25 0 -49 10 -67 28s-28 41 -28 66s10 49 28 67l74 74c47 46 100 52 136 17c10 -10 10 -26 0 -36c-10 -9 -25 -9 -35 0c-21 21 -50 -1 -66 -17l-74 -73c-9 -9 -13 -20 -13 -32s4 -23 13 -31
c17 -17 46 -17 63 0zM422 420c18 -18 28 -41 28 -66s-10 -49 -28 -67l-79 -79c-25 -24 -50 -36 -75 -36c-20 0 -39 8 -56 25c-9 9 -9 25 0 35c10 9 26 9 35 0c8 -8 25 -24 61 12l79 78c9 9 14 20 14 32s-5 23 -14 31c-15 16 -40 23 -58 5l-25 -25c-10 -10 -26 -10 -35 0
c-10 10 -10 25 0 35l25 25c36 36 90 34 128 -5z" />
    <glyph glyph-name="flag" unicode="&#x2691;" horiz-adv-x="551" 
d="M487 383c9 4 17 -2 11 -10c-233 -339 -153 7 -351 -159l45 -176h-50l-92 360l46 17c222 162 106 -146 391 -32z" />
    <glyph glyph-name="cog" unicode="&#x2699;" horiz-adv-x="520" 
d="M430 250c0 -26 16 -46 40 -61c-4 -14 -10 -28 -17 -41c-27 7 -49 -4 -68 -22c-18 -19 -24 -41 -17 -68c-13 -7 -27 -13 -42 -18c-14 25 -40 41 -66 41s-52 -16 -66 -41c-15 5 -29 11 -42 18c7 27 2 49 -17 68c-18 18 -40 24 -68 17c-7 13 -12 27 -17 41
c24 15 41 40 41 66c0 27 -17 47 -41 62c5 14 10 28 17 41c28 -7 50 4 68 22c19 19 24 41 17 68c13 7 27 13 42 17c14 -24 40 -40 66 -40s52 16 66 40c15 -4 29 -10 42 -17c-7 -27 -1 -49 17 -68c19 -18 41 -29 68 -22c7 -13 13 -27 17 -41c-24 -15 -40 -35 -40 -62zM260 159
c51 0 91 41 91 91c0 51 -40 92 -91 92c-50 0 -91 -41 -91 -92c0 -50 41 -91 91 -91z" />
    <glyph glyph-name="tools" unicode="&#x2692;" horiz-adv-x="599" 
d="M127 328c-10 -8 -6 -28 -8 -29c-2 -2 -14 -12 -18 -16c-5 -4 -12 -1 -14 2c-3 3 -35 38 -35 38c-3 4 -2 9 1 12s15 11 19 15c8 7 17 -2 32 10c13 12 7 27 14 34c2 1 12 12 38 30c21 14 61 44 93 48c8 0 61 0 74 -1c26 0 -143 -40 -98 -99c7 -9 16 -21 19 -24s1 -6 -1 -7
c-2 -2 -36 -33 -38 -35c-2 -1 -6 -5 -9 -2c-26 30 -45 42 -69 24zM270 315l205 -238c5 -6 5 -14 -1 -19l-24 -21c-6 -4 -14 -4 -19 2l-207 236c-3 3 -2 7 0 10l36 31c4 3 7 3 10 -1zM547 416c2 -13 4 -60 -8 -83c-14 -25 -36 -41 -77 -31c-19 4 -40 -6 -50 -16l-41 -39
l-34 39l34 35c27 28 13 56 21 88c7 31 61 52 70 56s12 -6 10 -9c-3 -3 -18 -30 -23 -40c-5 -9 -15 -23 14 -44c27 -19 42 1 48 11s21 32 24 37s10 8 12 -4zM118 74l127 124l38 -43l-123 -121c-5 -5 -13 -7 -19 -2l-23 23c-6 5 -6 14 0 19z" />
    <glyph glyph-name="trophy" unicode="&#x1f3c6;" horiz-adv-x="550" 
d="M305 142v-33c47 -5 81 -23 81 -44c0 -24 -49 -45 -111 -45c-61 0 -111 21 -111 45c0 21 35 39 82 44v33c0 36 -28 56 -73 86c-55 36 -123 81 -123 189c0 9 8 17 18 17h86c12 23 48 46 121 46s110 -23 122 -46h85c10 0 18 -8 18 -17c0 -108 -68 -153 -123 -189
c-45 -30 -72 -50 -72 -86zM374 268c43 30 84 64 90 131h-63c-2 -60 -13 -101 -27 -131zM275 450c-68 0 -95 -28 -95 -38c0 -11 27 -39 95 -39s95 28 95 39c0 10 -27 38 -95 38zM86 399c6 -67 47 -101 90 -131c-14 30 -25 71 -27 131h-63z" />
    <glyph glyph-name="tag" unicode="&#xe70c;" horiz-adv-x="580" 
d="M522 490c27 -78 -21 -142 -68 -178l9 -12c4 -7 6 -19 3 -27l-24 -79c-3 -7 -11 -18 -18 -23l-232 -164c-11 -8 -24 -10 -32 2l-105 152c-8 12 -6 28 6 36l232 164c7 5 19 9 27 9h79c8 0 19 -6 24 -13l14 -20c35 27 80 77 57 143c-3 8 2 17 9 20c8 2 17 -2 19 -10z
M414 256c13 10 19 25 17 40c-6 -3 -11 -6 -16 -8c-2 -1 -4 -2 -6 -2c-6 0 -11 4 -14 9c-3 8 0 17 8 20c0 1 5 3 12 7c-14 10 -32 11 -46 0c-18 -12 -23 -37 -10 -56c12 -18 37 -22 55 -10z" />
    <glyph glyph-name="camera" unicode="&#x1f4f7;" 
d="M300 300c42 0 75 -33 75 -75c0 -41 -33 -75 -75 -75c-41 0 -75 34 -75 75c0 42 34 75 75 75zM500 375c28 0 50 -22 50 -50v-225c0 -27 -22 -50 -50 -50h-400c-27 0 -50 23 -50 50v225c0 28 23 50 50 50h60c8 0 17 7 20 15l15 46c3 8 12 14 20 14h170c8 0 17 -6 20 -14
l15 -46c3 -8 12 -15 20 -15h60zM300 100c69 0 125 56 125 125s-56 125 -125 125s-125 -56 -125 -125s56 -125 125 -125zM483 290c9 0 17 8 17 18s-8 17 -17 17c-10 0 -18 -7 -18 -17s8 -18 18 -18z" />
    <glyph glyph-name="megaphone" unicode="&#x1f4e3;" horiz-adv-x="531" 
d="M446 325c39 -92 46 -186 14 -199c-42 -17 -65 59 -187 46c-18 -2 -30 -13 -24 -28c4 -10 18 -43 23 -54c4 -10 20 -12 24 -21s1 -19 -11 -23c-11 -5 -42 -17 -51 -20s-21 8 -27 21c-5 12 -21 49 -29 66c-6 14 -23 1 -40 24c0 0 -15 -5 -19 -7c-23 -9 -55 13 -64 36
c-10 22 -4 60 19 70c269 109 181 216 236 238c32 13 96 -57 136 -149zM432 175c7 3 10 61 -21 132c-31 72 -78 118 -85 115s-11 -68 20 -140s79 -110 86 -107z" />
    <glyph glyph-name="moon" unicode="&#x263d;" horiz-adv-x="511" 
d="M312 194c71 71 83 178 36 261c17 -9 33 -21 48 -36c86 -85 86 -224 0 -309c-86 -86 -224 -86 -310 0c-14 14 -26 30 -36 47c84 -46 191 -34 262 37z" />
    <glyph glyph-name="palette" unicode="&#x1f3a8;" horiz-adv-x="591" 
d="M479 386c79 -52 67 -126 43 -131c-24 -6 -63 35 -107 -13c-35 -38 20 -75 18 -95c-1 -20 -52 -86 -189 -87c-128 0 -200 80 -193 173c5 78 79 170 160 193c103 30 190 12 268 -40zM320 153c20 0 37 17 37 38s-17 37 -37 37c-21 0 -38 -16 -38 -37s17 -38 38 -38z" />
    <glyph glyph-name="leaf" unicode="&#x1f342;" horiz-adv-x="570" 
d="M168 398c130 75 376 17 350 3c-112 -60 -104 -183 -183 -239c-59 -41 -143 -20 -191 -2c0 0 -33 -38 -57 -88c-8 -17 -42 2 -36 16c77 180 338 270 338 270s-184 7 -308 -139c-3 33 -8 123 87 179z" />
    <glyph glyph-name="note" unicode="&#x266a;" horiz-adv-x="391" 
d="M241 485c0 -66 155 -118 79 -235c-10 -17 -16 -10 -13 0c9 24 4 113 -66 124v-268c1 -32 -27 -67 -71 -83c-50 -18 -102 -3 -116 34c-13 37 17 82 68 100c28 10 57 10 79 2v326h40z" />
    <glyph glyph-name="beamed-notes" unicode="&#x266b;" horiz-adv-x="471" 
d="M153 432l267 58v-352c1 -28 -22 -57 -58 -70c-42 -16 -75 -3 -86 28s4 69 46 85c18 7 37 8 53 5v188l-177 -41v-245c0 -28 -23 -57 -59 -70c-42 -16 -74 -3 -85 28c-12 31 3 69 45 85c19 7 38 8 54 5v296z" />
    <glyph glyph-name="new" unicode="&#x1f4a5;" horiz-adv-x="552" 
d="M493 192c13 -11 10 -24 -6 -28l-39 -11c-16 -4 -28 -21 -27 -38l2 -41c1 -16 -11 -24 -26 -17l-43 22c-15 8 -34 1 -41 -13l-23 -44c-8 -15 -21 -16 -31 -2l-25 39c-10 14 -29 18 -44 10l-61 -35c-15 -9 -22 -3 -17 13l27 82c5 16 -4 31 -20 33l-53 6c-16 2 -20 13 -7 24
l43 38c13 11 13 30 0 41l-43 38c-13 11 -10 24 6 28l39 11c16 4 29 21 28 38l-3 41c0 17 11 25 26 18l40 -19c16 -7 35 0 43 14l23 40c8 14 22 14 30 -1l25 -43c8 -15 26 -20 40 -11l68 42c14 9 21 3 15 -13l-30 -85c-6 -15 3 -30 20 -31l57 -6c17 -1 20 -12 7 -23l-43 -38
c-12 -11 -12 -30 0 -41zM301 146v52h-50v-52h50zM301 226v130h-50v-130h50z" />
    <glyph glyph-name="graduation-cap" unicode="&#x1f393;" 
d="M133 194l167 -84l138 68c-11 -47 2 -54 -47 -75c-50 -22 -72 -43 -91 -43s-43 24 -92 45c-49 22 -64 42 -75 89zM538 317c16 -9 16 -24 0 -33l-39 -22l-154 51c-7 11 -24 18 -45 18c-26 0 -47 -12 -47 -28s21 -28 47 -28c7 0 13 0 18 2l146 -34l-134 -76
c-17 -9 -43 -9 -60 0l-208 117c-16 9 -16 24 0 33l208 117c17 9 43 9 60 0zM474 96c20 119 -10 147 -10 147l35 19s25 -36 11 -163c-4 -28 -37 -12 -36 -3z" />
    <glyph glyph-name="book" unicode="&#x1f4d5;" horiz-adv-x="450" 
d="M391 372c6 -3 9 -8 9 -14v-281c0 -9 -10 -18 -20 -18s-23 5 -23 18v261s0 6 -6 9s-202 108 -202 108c-3 1 -16 5 -34 -5c-17 -8 -26 -18 -28 -22l204 -114c6 -3 9 -9 9 -14v-275c0 -6 -3 -12 -9 -14c-3 -2 -6 -2 -8 -2c-4 0 -7 0 -10 2c-5 4 -194 122 -207 129
c-6 4 -13 11 -13 17l-3 262c0 5 0 14 7 26c18 28 79 59 109 43z" />
    <glyph glyph-name="newspaper" unicode="&#x1f4f0;" horiz-adv-x="500" 
d="M400 475c28 0 50 -22 50 -50v-350c0 -27 -22 -50 -50 -50h-300c-27 0 -50 23 -50 50v350c0 28 23 50 50 50h300zM400 75v350h-300v-350h300zM275 200v-25h-125v25h125zM350 300v-25h-100v25h100zM250 325v50h100v-50h-100zM225 375v-100h-75v100h75zM200 250v-25h-50v25
h50zM225 225v25h125v-25h-125zM350 150v-25h-200v25h200zM300 175v25h50v-25h-50z" />
    <glyph glyph-name="bag" unicode="&#x1f45c;" horiz-adv-x="531" 
d="M468 409c8 -7 14 -16 12 -30s-49 -324 -49 -324c-2 -8 -11 -15 -19 -15h-293c-9 0 -17 7 -20 15c0 0 -47 310 -48 324c-2 14 4 23 11 30c7 6 48 37 55 43c8 7 20 8 28 8h240c9 0 20 -1 28 -8c8 -6 48 -37 55 -43zM265 191c81 0 99 115 102 139h-46
c-7 -35 -22 -94 -56 -94c-33 0 -49 59 -56 94h-46c4 -24 21 -139 102 -139zM89 375h352l-55 58h-242z" />
    <glyph glyph-name="airplane" unicode="&#x2708;" 
d="M184 15l62 200h-90l-56 -50h-50l40 85l-40 85h50l56 -50h90l-62 200h50l112 -200h129s75 0 75 -35s-75 -35 -75 -35h-129l-112 -200h-50z" />
    <glyph glyph-name="lifebuoy" unicode="&#xe788;" horiz-adv-x="562" 
d="M278 480c127 2 231 -99 233 -226s-100 -232 -227 -234c-127 -1 -231 100 -233 227s100 232 227 233zM278 450c-32 0 -62 -8 -89 -22l31 -52c18 9 39 14 61 14s43 -5 61 -14l31 52c-28 15 -60 23 -95 22zM155 189c-9 19 -14 39 -14 61s5 43 14 62l-51 31
c-15 -29 -23 -61 -23 -95c1 -33 9 -63 23 -90zM284 50c32 1 63 9 89 23l-31 52c-18 -9 -39 -15 -61 -15s-43 6 -61 15l-31 -52c28 -15 61 -23 95 -23zM281 140c61 0 110 50 110 110c0 61 -49 110 -110 110s-110 -49 -110 -110c0 -60 49 -110 110 -110zM407 189l52 -31
c14 29 23 61 22 95c0 32 -8 63 -22 90l-52 -31c9 -19 14 -40 14 -62s-5 -42 -14 -61z" />
    <glyph glyph-name="eye" unicode="&#xe70a;" 
d="M300 390c164 0 250 -120 250 -140c0 -19 -86 -140 -250 -140s-250 121 -250 140c0 20 86 140 250 140zM300 143c61 0 111 48 111 107c0 60 -50 108 -111 108s-111 -48 -111 -108c0 -59 50 -107 111 -107zM300 250c9 -9 56 14 56 0c0 -29 -25 -53 -56 -53s-55 24 -55 53
c0 30 24 54 55 54c17 0 -10 -42 0 -54z" />
    <glyph glyph-name="clock" unicode="&#x1f554;" horiz-adv-x="560" 
d="M280 480c127 0 230 -103 230 -230s-103 -230 -230 -230s-230 103 -230 230s103 230 230 230zM280 70c100 0 180 81 180 180c0 100 -80 180 -180 180c-99 0 -180 -80 -180 -180c0 -99 81 -180 180 -180zM298 380v-122l75 -75l-25 -25l-85 85v137h35z" />
    <glyph glyph-name="mic" unicode="&#x1f3a4;" horiz-adv-x="420" 
d="M360 319c6 0 10 -4 10 -10v-69c0 -55 -41 -115 -135 -124v-66h65c6 0 10 -4 10 -10v-30c0 -5 -4 -10 -10 -10h-180c-5 0 -10 5 -10 10v30c0 6 5 10 10 10h65v66c-94 9 -135 69 -135 124v69c0 6 5 10 10 10h15c6 0 10 -4 10 -10v-69c0 -33 26 -90 125 -90s125 57 125 90
v69c0 6 5 10 10 10h15zM210 200c-59 0 -75 25 -75 40v79h150v-79c0 -15 -16 -40 -75 -40zM285 460v-106h-150v106c0 16 16 40 75 40s75 -24 75 -40z" />
    <glyph glyph-name="calendar" unicode="&#x1f4c5;" horiz-adv-x="550" 
d="M450 425c28 0 50 -22 50 -50v-300c0 -27 -22 -50 -50 -50h-350c-27 0 -50 23 -50 50v300c0 28 23 50 50 50h23v-50h80v50h145v-50h80v50h22zM450 75v200h-350v-200h350zM180 475v-85h-35v85h35zM405 475v-85h-35v85h35z" />
    <glyph glyph-name="bolt" unicode="&#x26a1;" horiz-adv-x="302" 
d="M71 25c-5 4 79 180 76 187c-3 8 -91 36 -96 50c-4 13 175 217 180 213s-78 -181 -76 -186c2 -6 93 -35 96 -50c3 -14 -175 -217 -180 -214z" />
    <glyph glyph-name="thunder-cloud" unicode="&#x26c8;" 
d="M430 322c67 0 120 -52 120 -117s-53 -117 -120 -117h-289c-50 0 -91 40 -91 88c0 49 41 89 91 89c3 0 7 -1 10 -1c-1 6 -1 13 -1 19c0 72 59 130 133 130c60 0 111 -39 127 -93c7 1 14 2 20 2zM334 214c5 6 7 11 7 15c0 9 -8 13 -15 16h-2c-6 3 -15 7 -19 8l25 58
c1 0 3 5 3 10s-2 8 -4 9c-7 4 -14 -1 -17 -4c-2 -3 -55 -57 -68 -75c-4 -6 -6 -11 -6 -15c0 -9 8 -13 15 -15l2 -1c6 -3 14 -6 19 -8l-26 -57c0 -1 -2 -6 -2 -11s2 -7 4 -9c7 -4 14 1 17 5c2 2 55 57 67 74z" />
    <glyph glyph-name="droplet" unicode="&#x1f4a7;" horiz-adv-x="380" 
d="M195 486c22 -177 135 -214 135 -337c0 -77 -64 -139 -140 -139s-140 62 -140 139c0 123 113 160 135 337c1 6 10 6 10 0zM174 290c1 2 0 5 -1 7c-4 4 -11 4 -13 0c-6 -9 -13 -19 -20 -29c-23 -32 -50 -68 -50 -123c0 -16 13 -29 29 -29c14 0 29 9 29 34
c0 47 11 87 21 123c2 6 3 12 5 17z" />
    <glyph glyph-name="cd" unicode="&#x1f4bf;" horiz-adv-x="560" 
d="M280 480c127 0 230 -103 230 -230s-103 -230 -230 -230s-230 103 -230 230s103 230 230 230zM280 175c42 0 75 34 75 75c0 42 -33 75 -75 75c-41 0 -75 -33 -75 -75c0 -41 34 -75 75 -75z" />
    <glyph glyph-name="briefcase" unicode="&#x1f4bc;" 
d="M278 238v-50h-228s4 113 5 146s13 54 50 54h80c13 23 26 49 30 56c9 16 11 19 30 19h111c18 0 21 -3 29 -19c4 -7 18 -33 30 -56h80c37 0 49 -21 50 -54c1 -35 5 -146 5 -146h-227v50h-45zM241 415c-2 -4 -8 -15 -14 -27h146c-6 12 -12 23 -14 27c-6 11 -8 13 -21 13h-76
c-13 0 -15 -2 -21 -13zM323 113v50h215s-3 -44 -5 -83c-1 -16 -6 -42 -45 -42h-375c-40 0 -45 26 -45 42c-2 38 -5 83 -5 83h215v-50h45z" />
    <glyph glyph-name="area-graph" unicode="&#x1f53e;" horiz-adv-x="590" 
d="M532 441c5 7 8 6 8 -2v-384h-482c-8 0 -10 6 -5 12l115 144c5 6 14 7 20 1l37 -33c6 -6 15 -4 19 2l79 119c4 7 13 8 19 2l56 -52c6 -6 14 -5 19 2z" />
    <glyph glyph-name="hourglass" unicode="&#x23f3;" horiz-adv-x="380" 
d="M330 386c0 -53 -97 -98 -97 -136c0 -37 97 -82 97 -135v-59c0 -20 -63 -56 -140 -56s-140 36 -140 56v59c0 53 97 98 97 135c0 38 -97 83 -97 136v59c0 19 63 55 140 55s140 -36 140 -55v-59zM89 442c0 0 -16 -8 -7 -14c21 -12 61 -26 108 -26c48 0 89 13 110 25
c9 6 -5 13 -8 15c0 0 -48 27 -101 27c-52 0 -85 -16 -102 -27zM203 250c0 30 25 49 51 75c19 19 46 44 46 61l1 25c-26 -14 -67 -27 -111 -27s-85 13 -111 27l2 -25c0 -17 26 -42 45 -61c27 -26 52 -45 52 -75c0 -29 -25 -49 -52 -74c-19 -19 -45 -45 -45 -61v-33
c24 12 96 24 96 62c0 20 26 20 26 0c0 -38 72 -50 97 -62v33c0 16 -27 42 -46 61c-26 25 -51 45 -51 74z" />
    <glyph glyph-name="gauge" unicode="&#x1f6c7;" 
d="M253 164c18 30 194 258 204 252c9 -5 -100 -272 -117 -302s-44 -32 -68 -18s-36 38 -19 68zM300 354c-112 0 -200 -96 -200 -219c0 -8 0 -15 1 -23c1 -14 -9 -26 -23 -27c-13 -1 -25 9 -27 23c0 9 -1 18 -1 27c0 151 110 269 250 269c24 0 46 -3 67 -9
c-12 -15 -24 -30 -35 -43c-10 1 -21 2 -32 2zM481 323c43 -48 69 -114 69 -188c0 -9 0 -19 -1 -28c-1 -13 -12 -23 -25 -23h-2c-14 2 -24 14 -23 28c1 7 1 15 1 23c0 51 -15 97 -40 134c6 16 14 35 21 54z" />
    <glyph glyph-name="language" unicode="&#x1f394;" horiz-adv-x="601" 
d="M544 228c20 -55 -9 -124 -72 -168c-1 0 -4 -1 -6 1s-14 17 -16 19c-1 2 0 4 1 5c59 41 80 112 53 150c-17 -42 -66 -128 -145 -118c-34 4 -58 27 -58 67c0 27 11 54 30 74c12 12 30 26 57 33l-1 50s-70 -12 -73 -12c-3 -1 -4 0 -5 2c0 2 -5 27 -5 30c-1 2 2 3 4 3
c2 1 78 14 78 14s0 55 -1 57c0 3 2 4 4 4c3 0 23 0 26 1c3 0 5 -1 5 -4v-52s79 11 82 11c2 1 4 1 5 -3c0 -2 4 -21 4 -24c1 -3 1 -5 -2 -6c-3 0 -88 -15 -88 -15v-51h6c58 0 101 -26 117 -68zM359 148c11 -2 22 0 31 3l-2 107c-12 -4 -22 -11 -30 -20
c-14 -14 -22 -35 -22 -54c0 -13 -1 -33 23 -36zM420 162c29 26 64 88 55 94c-10 5 -28 9 -48 9c-2 0 -4 -1 -6 -1zM196 353c11 -32 87 -274 88 -276c0 -1 0 -2 -2 -2h-43c-2 0 -3 1 -3 2s-25 83 -25 83h-88s-24 -82 -25 -83c0 -1 -1 -2 -3 -2h-43c-2 0 -2 1 -2 2
c1 2 78 244 88 276c1 3 2 4 5 4h48c3 0 5 -1 5 -4zM131 195h72l-36 132z" />
    <glyph glyph-name="network" unicode="&#xe776;" horiz-adv-x="560" 
d="M162 327c-8 0 -15 -2 -21 -5c-18 19 -33 41 -46 64c17 23 39 44 64 59c27 -11 53 -24 76 -41c-2 -5 -3 -10 -3 -16c0 -4 1 -7 2 -11c-21 -16 -40 -33 -58 -52c-4 1 -9 2 -14 2zM113 278c0 -11 4 -22 10 -30c-19 -36 -33 -75 -40 -116c-21 34 -33 75 -33 118
c0 37 9 72 25 103c12 -20 26 -39 42 -56c-2 -6 -4 -12 -4 -19zM281 437c-9 0 -17 -2 -25 -7c-18 13 -37 25 -57 35c25 9 53 15 81 15c42 0 81 -12 115 -31c-28 -5 -55 -14 -81 -25c-8 8 -20 13 -33 13zM354 207c-53 8 -102 27 -145 56c1 5 2 10 2 15c0 9 -3 18 -7 26
c14 16 31 31 49 45c8 -6 17 -10 28 -10c7 0 13 2 19 4c30 -35 53 -75 67 -120c-5 -4 -10 -10 -13 -16zM418 141c13 5 22 16 27 30c18 1 37 4 54 9c-15 -47 -44 -88 -83 -116c2 16 3 32 3 49c0 9 -1 19 -1 28zM343 174c-63 -32 -115 -79 -152 -136c-30 12 -57 31 -79 55
c4 49 18 95 40 137c3 -1 7 -1 10 -1c9 0 18 2 26 7c45 -31 98 -53 155 -62zM435 420c46 -42 75 -103 75 -170c0 -11 -1 -22 -2 -33c-21 -6 -42 -10 -65 -12c-7 17 -24 29 -44 30c-16 49 -41 93 -74 132c3 6 5 14 5 21v5c33 14 68 23 105 27zM367 148c5 -4 11 -7 16 -9
c1 -9 1 -17 1 -26c0 -25 -2 -49 -7 -72c-29 -14 -62 -21 -97 -21c-19 0 -38 2 -56 6c36 52 85 94 143 122z" />
    <glyph glyph-name="key" unicode="&#x1f511;" horiz-adv-x="490" 
d="M437 381c13 -74 -18 -153 -89 -166c-17 -3 -45 -4 -65 -1l-59 -97l-35 -6v0l-52 -83c-4 -8 -15 -15 -23 -16l-38 -7c-8 -2 -16 4 -17 13l-8 49c-2 8 1 21 6 28l129 193c-9 18 -16 44 -19 60c-13 74 47 131 119 144c71 14 139 -36 151 -111zM374 343c20 29 13 70 -15 90
c-28 21 -66 14 -86 -16c-20 -29 6 -41 34 -62c28 -20 48 -41 67 -12z" />
    <glyph glyph-name="battery" unicode="&#x1f50b;" 
d="M435 250c0 -70 32 -108 57 -108h33c-17 -27 -30 -42 -91 -42h-250c-94 0 -134 86 -134 150c0 63 40 150 134 150h250c61 0 74 -16 91 -42h-33c-25 0 -57 -39 -57 -108zM367 205c5 6 -4 13 -4 13s-68 67 -89 82c-22 15 -26 1 -31 -11c-5 -11 -11 -28 -11 -28l-74 33
s-13 6 -17 0c-4 -7 4 -14 4 -14s68 -66 90 -81c21 -15 25 -2 30 10s12 29 12 29l73 -34s13 -6 17 1zM522 301c14 0 28 -19 28 -49c0 -31 -14 -50 -28 -50h-19c-14 0 -27 19 -27 50c0 30 13 49 27 49h19z" />
    <glyph glyph-name="bucket" unicode="&#x1f4fe;" horiz-adv-x="558" 
d="M312 465c123 0 200 -43 195 -77s-44 -280 -46 -294c-2 -15 -59 -59 -149 -59v0c-89 0 -146 44 -148 59c-1 4 -1 7 -2 15c55 -4 113 26 151 76c19 0 34 15 34 35c0 19 -15 35 -35 35c-19 0 -35 -16 -35 -35c0 -7 2 -13 5 -18c-32 -39 -81 -61 -123 -58
c-72 7 -105 46 -108 83c-2 31 17 69 78 92c-6 33 -10 60 -11 69c-5 34 72 77 194 77v0zM86 230c2 -20 24 -41 64 -49c-5 32 -11 69 -16 102c-37 -16 -49 -37 -48 -53zM312 336c90 0 154 34 154 46c0 13 -64 46 -154 46c-89 0 -153 -33 -153 -46c0 -12 64 -46 153 -46z" />
    <glyph glyph-name="magnet" unicode="&#xe7a1;" horiz-adv-x="510" 
d="M309 53l8 82l130 -10l-8 -83c-1 -7 -8 -13 -16 -12l-100 8c-8 0 -14 7 -14 15zM64 125l129 10l8 -82c1 -8 -5 -15 -14 -15l-99 -8c-8 -1 -16 5 -16 12zM51 260c-1 6 -1 11 -1 17c0 106 92 193 205 193s205 -87 205 -193c0 -6 0 -11 -1 -17l-8 -85l-129 11l8 85v6
c0 39 -33 70 -75 70c-41 0 -75 -31 -75 -70v-6l8 -85l-129 -11z" />
    <glyph glyph-name="drive" unicode="&#x1f4fd;" horiz-adv-x="551" 
d="M492 227c7 -12 10 -34 7 -48l-17 -92c-2 -14 -15 -25 -29 -25h-356c-13 0 -27 11 -29 25l-17 92c-2 14 1 36 7 48l79 187c6 13 23 23 36 23h204c14 0 30 -10 37 -23zM458 161c2 15 -8 27 -22 27h-322c-14 0 -24 -12 -22 -27l7 -37c2 -15 15 -26 29 -26h295
c14 0 27 11 29 26z" />
    <glyph glyph-name="cup" unicode="&#x2615;" horiz-adv-x="442" 
d="M221 455c107 0 174 -36 170 -64l-36 -297c-1 -12 -56 -49 -134 -49s-132 37 -134 49l-36 297c-3 28 63 64 170 64zM221 347c78 0 134 28 134 39c0 10 -56 38 -134 38s-134 -28 -134 -38c0 -11 56 -39 134 -39z" />
    <glyph glyph-name="rocket" unicode="&#x1f680;" horiz-adv-x="531" 
d="M322 193c12 -110 -9 -102 -124 -153c-22 -9 -30 6 -24 24c6 17 20 55 20 55l-65 66s-37 -14 -53 -20c-17 -7 -32 1 -23 24c49 118 41 139 149 126c0 0 125 181 267 161c3 0 6 -2 7 -3s2 -3 3 -7c19 -145 -157 -273 -157 -273zM347 341c15 -15 39 -15 54 0
c15 16 15 40 0 56c-15 15 -39 15 -54 0c-15 -16 -15 -40 0 -56z" />
    <glyph glyph-name="brush" unicode="&#xe79a;" horiz-adv-x="581" 
d="M109 160c25 24 60 18 86 -8c27 -26 33 -61 9 -85c-57 -56 -174 -64 -151 -39c50 57 18 95 56 132zM529 483c19 -19 -156 -230 -220 -293c-32 -32 -49 -42 -62 -52c-5 -4 -7 2 -8 4c-7 13 -13 21 -24 32c-12 12 -20 18 -33 24c-3 1 -8 3 -4 8c10 13 20 30 52 61
c64 63 279 235 299 216z" />
    <glyph glyph-name="suitcase" unicode="&#x1f6c6;" 
d="M500 400c28 0 50 -23 50 -50v-275c0 -28 -22 -50 -50 -50h-25v375h25zM50 350c0 27 23 50 50 50h25v-375h-25c-27 0 -50 22 -50 50v275zM385 452v-52h55v-375h-280v375h55v52c17 8 44 23 85 23s68 -15 85 -23zM355 400v33c-13 6 -32 12 -55 12c-22 0 -41 -6 -55 -12v-33
h110z" />
    <glyph glyph-name="traffic-cone" unicode="&#x1f6c8;" horiz-adv-x="582" 
d="M291 198c-60 0 -110 20 -113 46c9 25 19 52 28 79c7 -19 44 -32 85 -32c42 0 78 13 85 32c9 -27 19 -54 28 -79c-3 -26 -53 -46 -113 -46zM291 365c-28 0 -54 9 -62 22c11 30 20 55 26 71c3 11 21 17 36 17c16 0 33 -6 37 -17c5 -16 14 -41 25 -71
c-8 -13 -34 -22 -62 -22zM511 173c26 -11 27 -30 2 -44l-176 -94c-25 -14 -66 -14 -91 0l-177 94c-25 14 -24 33 3 44l94 38l-11 -30c0 -32 62 -58 136 -58s136 26 137 58l-11 30z" />
    <glyph glyph-name="globe" unicode="&#x1f30e;" horiz-adv-x="580" 
d="M290 490c133 0 240 -108 240 -240c0 -133 -107 -240 -240 -240c-132 0 -240 107 -240 240c0 132 108 240 240 240zM495 250c0 90 -59 166 -140 194c-5 -7 -9 -12 -8 -16c5 -55 43 -14 50 -22c26 -29 -49 -39 -23 -90c13 -25 27 -32 48 -32c21 -1 29 -37 30 -51
c2 -15 0 -53 -7 -70c-8 -16 0 -32 7 -38c27 35 43 78 43 125zM262 452c-75 -10 -137 -61 -163 -129c15 -2 51 -2 56 -15s-16 -26 -16 -53c0 -29 38 -29 38 -51c0 -23 8 -49 8 -56s32 -48 44 -48c11 0 2 45 3 58c0 7 5 31 7 37c10 38 48 35 57 58c27 72 -59 77 -71 81
c-11 4 -31 4 -39 2c-7 -3 -22 10 -22 20c0 11 29 33 39 47c9 15 16 13 33 29c8 7 21 11 26 20zM226 55c20 -6 42 -10 64 -10c42 0 81 12 113 34c-9 16 -42 19 -59 17c-20 -2 -43 -14 -56 -17c-14 -3 -25 -8 -38 -8c-11 -1 -12 -9 -24 -16z" />
    <glyph glyph-name="keyboard" unicode="&#x2328;" 
d="M515 400c19 0 35 -16 35 -35v-230c0 -20 -16 -35 -35 -35h-430c-19 0 -35 15 -35 35v230c0 19 16 35 35 35h430zM325 350v-50h50v50h-50zM400 275h-50v-50h50v50zM250 350v-50h50v50h-50zM325 275h-50v-50h50v50zM175 350v-50h50v50h-50zM250 275h-50v-50h50v50zM100 350
v-50h50v50h-50zM175 275h-50v-50h50v50zM150 150v50h-50v-50h50zM425 150v50h-250v-50h250zM500 150v50h-50v-50h50zM425 225h50v50h-50v-50zM500 300v50h-100v-50h100z" />
    <glyph glyph-name="browser" unicode="&#xe74e;" 
d="M500 450c28 0 50 -23 50 -50v-300c0 -28 -22 -50 -50 -50h-400c-27 0 -50 22 -50 50v300c0 27 23 50 50 50h400zM165 403c-10 0 -19 -8 -19 -18c0 -11 9 -19 19 -19c11 0 19 8 19 19c0 10 -8 18 -19 18zM96 385c0 -11 9 -19 19 -19c11 0 19 8 19 19c0 10 -8 18 -19 18
c-10 0 -19 -8 -19 -18zM501 100v230h-401v-230h401zM501 370v30h-301v-30h301z" />
    <glyph glyph-name="publish" unicode="&#xe74d;" 
d="M500 475c28 0 50 -23 50 -50v-300c0 -28 -22 -50 -50 -50h-99v49h100v231h-401v-231h100v-49h-100c-27 0 -50 22 -50 50v300c0 27 23 50 50 50h400zM115 391c11 0 19 8 19 19c0 10 -8 18 -19 18c-10 0 -19 -8 -19 -18c0 -11 9 -19 19 -19zM165 391c11 0 19 8 19 19
c0 10 -8 18 -19 18c-10 0 -19 -8 -19 -18c0 -11 9 -19 19 -19zM501 394v31h-301v-31h301zM299 295l121 -120h-75v-150h-92v150h-75z" />
    <glyph glyph-name="progress-3" unicode="&#xe76b;" 
d="M550 300v-125c0 -28 -22 -50 -50 -50h-400c-27 0 -50 22 -50 50v150c0 27 23 50 50 50h400c28 0 50 -23 50 -50v-25zM500 175v150h-400v-150h400zM125 200v99h100v-99h-100zM250 200v99h100v-99h-100zM375 299h100v-99h-100v99z" />
    <glyph glyph-name="progress-2" unicode="&#xe76a;" 
d="M550 300v-125c0 -28 -22 -50 -50 -50h-400c-27 0 -50 22 -50 50v150c0 27 23 50 50 50h400c28 0 50 -23 50 -50v-25zM500 175v150h-400v-150h400zM125 200v99h100v-99h-100zM250 200v99h100v-99h-100z" />
    <glyph glyph-name="progress-1" unicode="&#xe769;" 
d="M550 300v-125c0 -28 -22 -50 -50 -50h-400c-27 0 -50 22 -50 50v150c0 27 23 50 50 50h400c28 0 50 -23 50 -50v-25zM500 175v150h-400v-150h400zM125 200v99h100v-99h-100z" />
    <glyph glyph-name="progress-0" unicode="&#xe768;" 
d="M550 300v-125c0 -28 -22 -50 -50 -50h-400c-27 0 -50 22 -50 50v150c0 27 23 50 50 50h400c28 0 50 -23 50 -50v-25zM500 175v150h-400v-150h400z" />
    <glyph glyph-name="light-down" unicode="&#x1f505;" horiz-adv-x="450" 
d="M225 330c45 0 80 -36 80 -80c0 -45 -35 -80 -80 -80c-44 0 -80 35 -80 80c0 44 36 80 80 80zM225 198c29 0 51 23 51 52c0 28 -22 51 -51 51c-28 0 -51 -23 -51 -51c0 -29 23 -52 51 -52zM75 270c14 0 25 -9 25 -20c0 -12 -11 -20 -25 -20s-25 8 -25 20c0 11 11 20 25 20
zM348 372c8 -8 6 -22 -4 -32c-9 -9 -24 -11 -31 -3c-8 8 -7 22 3 32c10 9 24 11 32 3zM375 270c14 0 25 -9 25 -20c0 -12 -11 -20 -25 -20s-24 8 -24 20c0 11 10 20 24 20zM225 125c11 0 20 -12 20 -25c0 -14 -9 -25 -20 -25s-20 11 -20 25c0 13 9 25 20 25zM106 156
c10 10 24 12 32 4s6 -22 -4 -32c-9 -10 -24 -11 -31 -4c-8 8 -7 22 3 32zM101 371c8 8 22 6 32 -4c10 -9 11 -24 4 -31c-8 -8 -22 -7 -32 3s-12 24 -4 32zM317 129c-9 10 -11 24 -3 32s22 6 32 -4c9 -9 11 -24 3 -31c-8 -8 -22 -7 -32 3zM225 375c-11 0 -20 11 -20 25
c0 13 9 25 20 25s20 -12 20 -25c0 -14 -9 -25 -20 -25z" />
    <glyph glyph-name="light-up" unicode="&#x1f506;" 
d="M525 270c14 0 25 -9 25 -20c0 -12 -11 -20 -25 -20h-24c-14 0 -25 8 -25 20c0 11 11 20 25 20h24zM300 387c76 0 138 -61 138 -137c0 -77 -62 -138 -138 -138s-137 61 -137 138c0 76 61 137 137 137zM300 150c55 0 100 44 100 100c0 55 -45 100 -100 100
s-100 -45 -100 -100c0 -56 45 -100 100 -100zM125 250c0 -12 -11 -20 -25 -20h-25c-14 0 -25 8 -25 20c0 11 11 20 25 20h25c14 0 25 -9 25 -20zM300 425c-11 0 -20 11 -20 25v25c0 13 9 25 20 25s20 -12 20 -25v-25c0 -14 -9 -25 -20 -25zM300 75c11 0 20 -12 20 -25v-25
c0 -14 -9 -25 -20 -25s-20 11 -20 25v25c0 13 9 25 20 25zM484 405l-17 -17c-10 -10 -24 -11 -32 -4c-8 8 -6 22 4 32c2 3 14 15 17 18c10 9 24 11 32 3s6 -22 -4 -32zM134 111c9 10 24 12 31 4c8 -8 7 -22 -3 -32l-18 -18c-9 -9 -24 -11 -31 -3c-8 8 -7 22 3 32
c3 2 15 14 18 17zM144 434l18 -18c10 -10 11 -24 3 -32c-7 -7 -22 -6 -31 4c-3 3 -15 15 -18 17c-10 10 -11 24 -3 32c7 8 22 6 31 -3zM439 83c-10 10 -12 24 -4 32s22 6 32 -4l17 -17c10 -10 12 -24 4 -32s-22 -6 -32 3c-3 3 -15 15 -17 18z" />
    <glyph glyph-name="adjust" unicode="&#x25d1;" 
d="M525 270c14 0 25 -9 25 -20c0 -12 -11 -20 -25 -20h-24c-14 0 -25 8 -25 20c0 11 11 20 25 20h24zM300 387c76 0 138 -61 138 -137c0 -77 -62 -138 -138 -138s-137 61 -137 138c0 76 61 137 137 137zM303 150v200c-58 0 -103 -45 -103 -100c0 -56 45 -100 103 -100z
M125 250c0 -12 -11 -20 -25 -20h-25c-14 0 -25 8 -25 20c0 11 11 20 25 20h25c14 0 25 -9 25 -20zM300 425c-11 0 -20 11 -20 25v25c0 13 9 25 20 25s20 -12 20 -25v-25c0 -14 -9 -25 -20 -25zM300 75c11 0 20 -12 20 -25v-25c0 -14 -9 -25 -20 -25s-20 11 -20 25v25
c0 13 9 25 20 25zM484 405l-17 -17c-10 -10 -24 -11 -32 -4c-8 8 -6 22 4 32c2 3 14 15 17 18c10 9 24 11 32 3s6 -22 -4 -32zM134 111c9 10 24 12 31 4c8 -8 7 -22 -3 -32l-18 -18c-9 -9 -24 -11 -31 -3c-8 8 -7 22 3 32c3 2 15 14 18 17zM144 434l18 -18
c10 -10 11 -24 3 -32c-7 -7 -22 -6 -31 4c-3 3 -15 15 -18 17c-10 10 -11 24 -3 32c7 8 22 6 31 -3zM439 83c-10 10 -12 24 -4 32s22 6 32 -4l17 -17c10 -10 12 -24 4 -32s-22 -6 -32 3c-3 3 -15 15 -17 18z" />
    <glyph glyph-name="code" unicode="&#xe714;" 
d="M240 393c10 -9 10 -23 0 -31l-123 -112l123 -113c10 -8 10 -22 0 -31c-9 -9 -21 -9 -30 0l-160 144l160 143c9 9 21 9 30 0zM391 393l159 -143l-159 -144c-10 -9 -22 -9 -31 0s-9 23 0 31l124 113l-124 112c-9 8 -9 22 0 31s21 9 31 0z" />
    <glyph glyph-name="monitor" unicode="&#x1f4bb;" 
d="M500 470c28 0 50 -23 50 -50v-275c0 -28 -22 -55 -49 -60l-109 -22s94 -33 33 -33h-250c-61 0 34 33 34 33l-110 22c-27 5 -49 32 -49 60v275c0 27 23 50 50 50h400zM500 147v278h-400v-278h400z" />
    <glyph glyph-name="mute" unicode="&#x1f507;" horiz-adv-x="542" 
d="M484 464c10 -10 10 -26 0 -36l-391 -391c-5 -4 -11 -7 -17 -7c-7 0 -13 3 -18 7c-10 10 -10 26 0 36l391 391c10 9 25 9 35 0zM376 271l25 25c49 -61 70 -121 47 -144c-25 -25 -161 -121 -266 -75l139 138c47 -35 88 -45 94 -39c7 7 -4 48 -39 95zM238 302l-135 -135
c-31 102 57 226 80 249c22 22 75 5 132 -37l-26 -25c-41 27 -75 35 -81 29c-6 -5 2 -40 30 -81z" />
    <glyph glyph-name="light-bulb" unicode="&#x1f4a1;" horiz-adv-x="451" 
d="M155 20v52h141v-52c-20 -12 -43 -21 -71 -20c-28 -1 -50 8 -70 20zM293 102h-135c0 109 -116 144 -107 252c5 69 52 146 174 146c123 0 169 -77 175 -146c8 -108 -107 -143 -107 -252zM104 350c-3 -35 17 -59 45 -98c20 -28 44 -62 56 -106h41c11 44 35 78 56 106
c27 39 48 63 45 98c-5 65 -50 98 -122 98s-116 -33 -121 -98z" />
    <glyph glyph-name="credit-card" unicode="&#x1f4b3;" 
d="M500 425c28 0 50 -23 50 -50v-250c0 -28 -22 -50 -50 -50h-400c-27 0 -50 22 -50 50v250c0 27 23 50 50 50h400zM500 125v150h-400v-150h400zM500 350v25h-400v-25h400zM150 222h15v-15h-15v15zM240 192h15v15h15v15h30v-15h-15v-15h-15v-15h-30v15zM300 177h-15v15h15
v-15zM225 177h-30v15h30v-15zM240 207v-15h-15v30h30v-15h-15zM180 192v-15h-30v15h15v15h15v15h30v-15h-15v-15h-15z" />
    <glyph glyph-name="database" unicode="&#x1f4f8;" horiz-adv-x="450" 
d="M393 179c5 7 7 3 7 -1v-50c0 -48 -78 -98 -175 -98c-96 0 -175 50 -175 98v50c0 4 3 8 7 1c21 -35 88 -60 168 -60s147 25 168 60zM394 306c4 7 6 3 6 0v-58c0 -45 -78 -80 -175 -80c-96 0 -175 35 -175 80v58c0 3 2 7 7 0c20 -30 88 -52 168 -52s148 22 169 52zM225 470
c97 0 175 -30 175 -66v-32c0 -38 -78 -70 -175 -70c-96 0 -175 32 -175 70v32c0 36 79 66 175 66z" />
    <glyph glyph-name="clipboard" unicode="&#x1f4cb;" horiz-adv-x="450" 
d="M365 450c19 0 35 -16 35 -35v-380c0 -20 -16 -35 -35 -35h-280c-19 0 -35 15 -35 35v380c0 19 16 35 35 35l30 -75h220zM315 400h-180l-22 50h54l18 50h80l18 -50h55z" />
    <glyph glyph-name="cart" unicode="&#xe73d;" horiz-adv-x="550" 
d="M125 75c0 27 23 50 50 50c28 0 50 -23 50 -50c0 -28 -22 -50 -50 -50c-27 0 -50 22 -50 50zM375 75c0 27 23 50 50 50c28 0 50 -23 50 -50c0 -28 -22 -50 -50 -50c-27 0 -50 22 -50 50zM214 193c-24 -7 -24 -18 5 -18h281v-38c0 -5 -4 -10 -10 -10h-65h-250h-12
c-6 0 -10 5 -10 10v38l-5 23l-49 227h-49v40c0 5 5 10 10 10h78c5 0 10 -5 10 -10v-43h352v-137c0 -6 -4 -12 -9 -13z" />
    <glyph glyph-name="box" unicode="&#x1f4e6;" horiz-adv-x="550" 
d="M485 450c8 0 15 -7 15 -15v-60h-450v60c0 8 7 15 15 15h420zM75 85v265h400v-265c0 -20 -16 -35 -35 -35h-330c-19 0 -35 15 -35 35zM200 300v-50h150v50h-150z" />
    <glyph glyph-name="ticket" unicode="&#x1f3ab;" horiz-adv-x="571" 
d="M158 211l163 163l89 -89l-163 -163zM513 333c10 -10 10 -26 0 -36l-275 -275c-10 -10 -26 -10 -36 0l-38 38c4 7 6 15 6 24c0 28 -22 51 -50 51c-9 0 -17 -3 -25 -7l-37 38c-10 10 -10 26 0 36l275 275c10 10 26 10 36 0l37 -38c-4 -7 -6 -15 -6 -24c0 -28 23 -50 51 -50
c9 0 17 2 24 6zM247 82l203 203l-129 129l-204 -203z" />
    <glyph glyph-name="rss" unicode="&#xe73a;" horiz-adv-x="480" 
d="M50 440c210 0 380 -171 380 -380h-59c0 177 -144 320 -321 320v60zM50 321c145 0 262 -117 262 -261h-59c0 111 -91 202 -203 202v59zM107 173c31 0 57 -25 57 -57c0 -31 -26 -56 -57 -56s-57 25 -57 56c0 32 26 57 57 57z" />
    <glyph glyph-name="signal" unicode="&#x1f4f6;" horiz-adv-x="590" 
d="M295 150c28 0 50 -23 50 -50c0 -28 -22 -50 -50 -50c-27 0 -49 22 -49 50c0 27 22 50 49 50zM190 206c58 58 152 58 210 0l-35 -36c-38 39 -101 39 -140 0zM120 276c97 98 254 98 350 0l-35 -35c-77 78 -202 78 -280 0zM50 347c136 137 355 137 490 0l-35 -35
c-116 117 -304 117 -420 0z" />
    <glyph glyph-name="thermometer" unicode="&#x1f4ff;" horiz-adv-x="370" 
d="M250 253c42 -23 70 -67 70 -118c0 -75 -60 -135 -135 -135c-74 0 -135 60 -135 135c0 51 28 95 70 118v222c0 13 6 25 20 25h85c14 0 25 -12 25 -25v-222zM185 50c47 0 85 38 85 85c0 37 -24 69 -58 80v185h-50v-184c-36 -10 -62 -43 -62 -81c0 -47 38 -85 85 -85z" />
    <glyph glyph-name="water" unicode="&#x1f4a6;" horiz-adv-x="570" 
d="M134 497c13 -103 78 -124 78 -195c0 -45 -37 -80 -81 -80s-81 35 -81 80c0 71 65 92 78 195c1 3 6 3 6 0zM442 497c13 -103 78 -124 78 -195c0 -45 -37 -80 -81 -80s-81 35 -81 80c0 71 66 92 78 195c1 3 6 3 6 0zM282 275c1 3 6 3 6 0c13 -103 78 -124 78 -195
c0 -45 -37 -80 -81 -80s-81 35 -81 80c0 71 65 92 78 195z" />
    <glyph glyph-name="sweden" unicode="&#xf601;" horiz-adv-x="550" 
d="M475 400c14 0 25 -12 25 -25v-100h-250v125h225zM50 125v100h150v-125h-130c-14 0 -20 11 -20 25zM250 100v125h250v-100c0 -14 -11 -25 -25 -25h-225zM50 375c0 13 6 25 20 25h130v-125h-150v100z" />
    <glyph glyph-name="voicemail" unicode="&#x2707;" 
d="M435 365c64 0 115 -51 115 -115c0 -63 -51 -115 -115 -115h-270c-63 0 -115 52 -115 115c0 64 52 115 115 115c64 0 115 -51 115 -115c0 -24 -7 -46 -20 -65h80c-12 19 -20 41 -20 65c0 64 52 115 115 115zM100 250c0 -35 29 -65 65 -65s65 30 65 65c0 36 -29 65 -65 65
s-65 -29 -65 -65zM435 185c36 0 65 30 65 65c0 36 -29 65 -65 65s-65 -29 -65 -65c0 -35 29 -65 65 -65z" />
    <glyph glyph-name="lock" unicode="&#x1f512;" horiz-adv-x="450" 
d="M370 313c14 0 30 -16 30 -30v-195c0 -14 -11 -28 -24 -33l-30 -9c-13 -5 -35 -8 -48 -8h-145c-14 0 -36 3 -49 8l-30 9c-13 5 -24 19 -24 33v195c0 14 11 30 25 30h50v35c0 72 34 115 100 115c67 0 100 -43 100 -115v-35h45zM175 358v-45h100v45c0 36 -20 55 -50 55
s-50 -19 -50 -55z" />
    <glyph glyph-name="lock-open" unicode="&#x1f513;" horiz-adv-x="450" 
d="M370 300c14 0 30 -16 30 -30v-195c0 -13 -11 -28 -24 -32l-30 -10c-13 -4 -35 -8 -48 -8h-145c-14 0 -36 4 -49 8l-30 10c-13 4 -24 19 -24 32v195c0 14 11 30 25 30h200v70c0 37 -20 55 -50 55s-50 -18 -50 -55v-20h-50v10c0 73 34 115 100 115c67 0 100 -42 100 -115
v-60h45z" />
    <glyph glyph-name="logout" unicode="&#xe741;" horiz-adv-x="550" 
d="M301 75v50h49v-50c0 -27 -22 -50 -50 -50h-200c-27 0 -50 23 -50 50v350c0 28 23 50 50 50h200c28 0 50 -22 50 -50v-75h-49v75h-201v-350h201zM500 238l-99 -98v60h-225v75h225v60z" />
    <glyph glyph-name="login" unicode="&#xe740;" horiz-adv-x="550" 
d="M450 475c28 0 50 -22 50 -50v-350c0 -27 -22 -50 -50 -50h-225c-27 0 -49 23 -49 50v50h49v-50h225v350h-225v-75h-49v75c0 28 22 50 49 50h225zM275 140v60h-225v75h225v60l100 -97z" />
    <glyph glyph-name="check" unicode="&#x2713;" horiz-adv-x="435" 
d="M175 75c-11 0 -22 6 -28 14l-90 118c-11 16 -8 37 7 49s37 9 49 -7l59 -77l148 237c10 16 31 21 48 11c16 -10 21 -31 11 -48l-175 -280c-6 -10 -16 -16 -28 -16c0 -1 -1 -1 -1 -1z" />
    <glyph glyph-name="cross" unicode="&#x274c;" horiz-adv-x="336" 
d="M277 172c12 -12 12 -31 0 -43c-12 -11 -31 -11 -43 0l-66 76l-66 -76c-12 -11 -31 -11 -43 0c-11 12 -11 31 0 43l69 78l-69 79c-11 12 -11 31 0 43c12 11 31 11 43 0l66 -76l66 76c12 11 31 11 43 0c12 -12 12 -31 0 -43l-69 -79z" />
    <glyph glyph-name="circled-minus" unicode="&#x2296;" horiz-adv-x="520" 
d="M260 460c116 0 210 -94 210 -210s-94 -210 -210 -210s-210 94 -210 210s94 210 210 210zM386 276h-252v-51h252v51z" />
    <glyph glyph-name="circled-plus" unicode="&#x2295;" horiz-adv-x="520" 
d="M260 460c116 0 210 -94 210 -210s-94 -210 -210 -210s-210 94 -210 210s94 210 210 210zM286 225h100v51h-100v101h-51v-101h-101v-51h101v-101h51v101z" />
    <glyph glyph-name="minus" unicode="&#x2796;" horiz-adv-x="390" 
d="M325 275c14 0 15 -11 15 -25c0 -13 -1 -25 -15 -25h-260c-14 0 -15 12 -15 25c0 14 1 25 15 25h260z" />
    <glyph glyph-name="plus" unicode="&#x2795;" horiz-adv-x="390" 
d="M325 275c14 0 15 -11 15 -25c0 -13 -1 -25 -15 -25h-105v-105c0 -13 -11 -15 -25 -15s-25 2 -25 15v105h-105c-14 0 -15 12 -15 25c0 14 1 25 15 25h105v105c0 14 11 15 25 15s25 -1 25 -15v-105h105z" />
    <glyph glyph-name="erase" unicode="&#x232b;" 
d="M500 425c28 0 50 -22 50 -50v-250c0 -27 -22 -50 -50 -50h-239c-11 0 -26 6 -35 14l-170 148c-8 8 -8 19 0 27l170 148c9 8 24 13 35 13h239zM430 150l36 37l-64 63l64 64l-36 36l-64 -63l-64 63l-36 -36l64 -64l-64 -63l36 -37l64 64z" />
    <glyph glyph-name="block" unicode="&#x1f6ab;" horiz-adv-x="580" 
d="M290 490c133 0 240 -107 240 -240c0 -132 -107 -240 -240 -240c-132 0 -240 108 -240 240c0 133 108 240 240 240zM419 380v0v0zM108 250c0 -43 15 -84 41 -115l257 257c-32 26 -72 41 -116 41c-101 0 -182 -82 -182 -183zM161 121v0v0zM290 68c101 0 183 82 183 182
c0 44 -16 85 -41 116l-257 -257c31 -26 71 -41 115 -41z" />
    <glyph glyph-name="info" unicode="&#x2139;" horiz-adv-x="330" 
d="M226 500c33 0 50 -22 50 -48c0 -33 -29 -63 -67 -63c-32 0 -50 19 -49 49c0 27 22 62 66 62zM123 0c-27 0 -46 17 -27 89l30 127c5 20 6 28 0 28c-8 0 -42 -14 -63 -28l-13 22c64 55 138 87 170 87c27 0 31 -32 18 -81l-35 -133c-6 -24 -3 -32 3 -32c8 0 34 10 59 30
l15 -20c-62 -64 -131 -89 -157 -89z" />
    <glyph glyph-name="circled-info" unicode="&#xe705;" horiz-adv-x="562" 
d="M278 480c127 2 231 -99 233 -226s-100 -232 -227 -234c-127 -1 -231 100 -233 227s100 232 227 233zM304 404c-31 0 -44 -22 -44 -37c-1 -18 10 -30 32 -30c26 0 42 18 42 38c0 15 -7 29 -30 29zM244 107c16 0 57 14 95 52l-9 12c-16 -12 -32 -18 -36 -18s-6 5 -2 19
l21 80c8 29 5 48 -11 48c-19 0 -63 -19 -102 -52l8 -13c12 8 33 17 37 17s4 -5 0 -17l-18 -76c-11 -43 1 -52 17 -52z" />
    <glyph glyph-name="help" unicode="&#x2753;" horiz-adv-x="390" 
d="M297 445c29 -21 43 -51 43 -92c0 -24 -9 -45 -21 -62c-7 -11 -24 -24 -44 -40l-23 -15c-11 -9 -21 -19 -24 -30c-2 -6 -3 -12 -4 -22c0 -2 -1 -7 -8 -7h-64s-8 4 -8 6c1 29 2 49 14 62c19 24 64 52 64 52c7 5 13 11 17 17c7 11 14 22 14 35c0 14 -5 27 -13 39
c-9 12 -24 18 -46 18c-23 0 -38 -7 -47 -22c-10 -15 -14 -30 -14 -46h-83c2 55 21 93 57 116c23 14 50 21 83 21c43 0 79 -10 107 -30zM189 127c29 0 51 -22 50 -52c-1 -31 -24 -50 -53 -49c-29 0 -51 21 -50 52s24 50 53 49z" />
    <glyph glyph-name="circled-help" unicode="&#xe704;" horiz-adv-x="562" 
d="M278 480c127 2 231 -99 233 -226s-100 -232 -227 -234c-127 -1 -231 100 -233 227s100 232 227 233zM277 110c20 0 34 14 34 33c1 20 -13 34 -33 34h-1c-19 0 -33 -13 -34 -32c0 -20 14 -34 33 -35h1v0zM360 274c9 12 13 25 13 39c0 26 -9 45 -27 58s-40 19 -67 19
c-21 0 -38 -4 -52 -13c-23 -14 -35 -39 -36 -73v-2h55v2c0 9 3 18 8 27c5 8 14 12 27 12s22 -3 26 -10c5 -6 8 -14 8 -22c0 -6 -3 -13 -8 -20c-3 -4 -6 -7 -10 -10c-1 -1 -28 -18 -40 -32c-7 -9 -8 -20 -9 -39v-4h54v2c0 9 1 10 2 14c2 6 6 12 14 18l14 9c13 10 23 18 28 25
z" />
    <glyph glyph-name="warning" unicode="&#x26a0;" horiz-adv-x="582" 
d="M529 63c3 -5 3 -11 0 -17c-3 -5 -9 -8 -15 -8h-446c-6 0 -11 3 -14 8c-4 6 -4 12 -1 17l223 391c3 6 9 9 15 9s12 -3 15 -9zM319 88v50h-55v-50h55zM319 175v150h-55v-150h55z" />
    <glyph glyph-name="cycle" unicode="&#x1f504;" horiz-adv-x="512" 
d="M144 145l58 58v-146l-138 8l44 43c-77 81 -76 209 3 289c34 34 76 53 120 58l2 -51c-32 -5 -62 -20 -86 -44c-59 -59 -60 -154 -3 -215zM310 444l138 -8l-44 -43c77 -82 76 -209 -3 -289c-33 -34 -76 -53 -120 -59l-1 52c31 5 61 20 85 44c59 59 60 154 3 215l-57 -58z
" />
    <glyph glyph-name="cw" unicode="&#x27f3;" horiz-adv-x="570" 
d="M254 455c112 0 202 -89 205 -199h61l-92 -103l-92 103h72c-3 82 -71 148 -154 148c-84 0 -153 -69 -153 -154c0 -84 69 -153 153 -153c34 0 66 11 91 30l35 -38c-34 -27 -78 -44 -126 -44c-112 0 -204 92 -204 205c0 114 92 205 204 205z" />
    <glyph glyph-name="ccw" unicode="&#x27f2;" horiz-adv-x="570" 
d="M316 443c113 0 204 -92 204 -205s-91 -205 -204 -205c-48 0 -91 16 -126 44l35 37c25 -18 57 -30 91 -30c84 0 153 69 153 154s-69 154 -153 154c-83 0 -151 -66 -153 -149h71l-92 -102l-92 102h62c2 111 93 200 204 200z" />
    <glyph glyph-name="shuffle" unicode="&#x1f500;" 
d="M427 333c-57 0 -93 -47 -134 -101c-46 -60 -98 -129 -191 -129h-52v70h52c58 0 94 47 135 101c46 61 98 129 190 129h18v60l105 -90l-105 -90v50h-18zM185 289c-23 24 -49 39 -83 39h-52v70h52c54 0 94 -23 127 -54c-12 -13 -22 -27 -32 -39c-4 -6 -8 -11 -12 -16z
M445 168v50l105 -90l-105 -90v60h-18c-55 0 -96 25 -130 58c13 16 25 31 36 46c2 3 5 6 7 10c25 -26 52 -44 87 -44h18z" />
    <glyph glyph-name="back" unicode="&#x1f519;" horiz-adv-x="525" 
d="M425 345c27 0 50 -22 50 -50v-145c0 -27 -23 -50 -50 -50h-345v70h325v105h-250v-55l-105 90l105 90v-55h270z" />
    <glyph glyph-name="level-down" unicode="&#x21b3;" horiz-adv-x="472" 
d="M100 175c-28 0 -50 23 -50 50v175h70v-155h182v75l120 -110l-120 -110v75h-202z" />
    <glyph glyph-name="retweet" unicode="&#xe717;" 
d="M175 170h136l64 -70h-224c-28 0 -50 23 -50 50v151h-51l88 99l87 -99h-50v-131zM500 200h50l-87 -100l-88 100h51v130h-137l-64 70h225c27 0 50 -22 50 -50v-150z" />
    <glyph glyph-name="loop" unicode="&#x1f501;" horiz-adv-x="550" 
d="M450 345c28 0 50 -22 50 -50v-145c0 -27 -22 -50 -50 -50h-350c-27 0 -50 23 -50 50v145c0 28 23 50 50 50h125v55l100 -90l-100 -90v55h-105v-105h310v105h-75v70h95z" />
    <glyph glyph-name="back-in-time" unicode="&#xe771;" horiz-adv-x="570" 
d="M316 455c113 0 204 -91 204 -205c0 -113 -91 -205 -204 -205c-48 0 -91 17 -126 44l35 38c26 -19 57 -30 91 -30c84 0 153 69 153 153c0 85 -69 154 -153 154c-83 0 -151 -66 -153 -148h71l-92 -103l-92 103h62c2 110 93 199 204 199zM298 360h35v-102l65 -65l-25 -25
l-75 75v117z" />
    <glyph glyph-name="level-up" unicode="&#x21b0;" horiz-adv-x="525" 
d="M150 250v-45l-100 80l100 85v-50h275c27 0 50 -22 50 -50v-140h-70v120h-255z" />
    <glyph glyph-name="numbered-list" unicode="&#xe005;" horiz-adv-x="450" 
d="M100 175c14 0 25 -11 25 -25c0 -13 -11 -25 -25 -25h-25c-14 0 -25 12 -25 25c0 14 11 25 25 25h25zM100 275c14 0 25 -11 25 -25c0 -13 -11 -25 -25 -25h-25c-14 0 -25 12 -25 25c0 14 11 25 25 25h25zM100 375c14 0 25 -11 25 -25c0 -13 -11 -25 -25 -25h-25
c-14 0 -25 12 -25 25c0 14 11 25 25 25h25zM200 325c-14 0 -25 12 -25 25c0 14 11 25 25 25h175c14 0 25 -11 25 -25c0 -13 -11 -25 -25 -25h-175zM375 275c14 0 25 -11 25 -25c0 -13 -11 -25 -25 -25h-175c-14 0 -25 12 -25 25c0 14 11 25 25 25h175zM375 175
c14 0 25 -11 25 -25c0 -13 -11 -25 -25 -25h-175c-14 0 -25 12 -25 25c0 14 11 25 25 25h175z" />
    <glyph glyph-name="add-to-list" unicode="&#xe003;" 
d="M225 275c14 0 25 -11 25 -25c0 -13 -11 -25 -25 -25h-150c-14 0 -25 12 -25 25c0 14 11 25 25 25h150zM225 175c14 0 25 -11 25 -25c0 -13 -11 -25 -25 -25h-150c-14 0 -25 12 -25 25c0 14 11 25 25 25h150zM535 275c14 0 15 -11 15 -25c0 -13 -1 -25 -15 -25h-85v-85
c0 -13 -11 -15 -25 -15s-25 2 -25 15v85h-82c-14 0 -15 12 -15 25c0 14 1 25 15 25h82v85c0 14 11 15 25 15s25 -1 25 -15v-85h85zM225 375c14 0 25 -11 25 -25c0 -13 -11 -25 -25 -25h-150c-14 0 -25 12 -25 25c0 14 11 25 25 25h150z" />
    <glyph glyph-name="layout" unicode="&#x268f;" horiz-adv-x="400" 
d="M135 400c28 0 40 -12 40 -40v-45c0 -27 -12 -40 -40 -40h-45c-27 0 -40 13 -40 40v45c0 28 13 40 40 40h45zM310 400c28 0 40 -12 40 -40v-45c0 -27 -12 -40 -40 -40h-45c-27 0 -40 13 -40 40v45c0 28 13 40 40 40h45zM135 225c28 0 40 -12 40 -40v-45
c0 -27 -12 -40 -40 -40h-45c-27 0 -40 13 -40 40v45c0 28 13 40 40 40h45zM310 225c28 0 40 -12 40 -40v-45c0 -27 -12 -40 -40 -40h-45c-27 0 -40 13 -40 40v45c0 28 13 40 40 40h45z" />
    <glyph glyph-name="list" unicode="&#x2630;" horiz-adv-x="450" 
d="M375 275c14 0 25 -11 25 -25c0 -13 -11 -25 -25 -25h-300c-14 0 -25 12 -25 25c0 14 11 25 25 25h300zM75 325c-14 0 -25 12 -25 25c0 14 11 25 25 25h300c14 0 25 -11 25 -25c0 -13 -11 -25 -25 -25h-300zM375 175c14 0 25 -11 25 -25c0 -13 -11 -25 -25 -25h-300
c-14 0 -25 12 -25 25c0 14 11 25 25 25h300z" />
    <glyph glyph-name="text-doc" unicode="&#x1f4c4;" horiz-adv-x="450" 
d="M156 229v45h140v-45h-140zM350 475c28 0 50 -22 50 -50v-350c0 -27 -22 -50 -50 -50h-250c-27 0 -50 23 -50 50v350c0 28 23 50 50 50h250zM350 75v350h-250v-350h250zM295 371v-44h-140v44h140zM295 175v-44h-140v44h140z" />
    <glyph glyph-name="text-doc-inverted" unicode="&#xe731;" horiz-adv-x="450" 
d="M350 475c28 0 50 -22 50 -50v-350c0 -27 -22 -50 -50 -50h-250c-27 0 -50 23 -50 50v350c0 28 23 50 50 50h250zM120 371v-44h210v44h-210zM330 131v44h-210v-44h210zM330 229v45h-209v-45h209z" />
    <glyph glyph-name="doc" unicode="&#xe730;" horiz-adv-x="450" 
d="M350 475c28 0 50 -22 50 -50v-350c0 -27 -22 -50 -50 -50h-250c-27 0 -50 23 -50 50v350c0 28 23 50 50 50h250zM350 75v350h-250v-350h250z" />
    <glyph glyph-name="docs" unicode="&#xe736;" horiz-adv-x="601" 
d="M535 315c11 -3 17 -13 15 -23l-75 -278c-2 -10 -13 -16 -24 -13l-203 55c-10 2 -17 13 -14 23l12 46l-90 -24c-11 -3 -22 3 -25 13l-80 301c-3 11 4 21 14 24l227 61c11 3 22 -3 24 -13l33 -122zM91 410l72 -271l196 53l-72 270zM442 39l66 246l-149 41l38 -141
c3 -10 -4 -20 -14 -23l-98 -26l-13 -51z" />
    <glyph glyph-name="landscape-doc" unicode="&#xe737;" 
d="M50 375c0 28 23 50 50 50h400c28 0 50 -22 50 -50v-250c0 -27 -22 -50 -50 -50h-400c-27 0 -50 23 -50 50v250zM500 375h-400v-250h400v250z" />
    <glyph glyph-name="picture" unicode="&#x1f304;" 
d="M478 334h-50l-62 75l-107 -75h-90c-35 0 -64 -30 -64 -65v-80l-54 148c-3 11 2 22 11 26l340 124c10 3 21 -2 25 -12zM531 289c11 0 19 -9 19 -20v-236c0 -11 -8 -20 -19 -20h-362c-10 0 -19 9 -19 20v236c0 11 9 20 19 20h362zM503 63v81l-36 80l-83 -30l-65 -66l-69 85
l-46 -107v-43h299z" />
    <glyph glyph-name="video" unicode="&#x1f3ac;" horiz-adv-x="590" 
d="M540 375h-50v-50h50v-50h-50v-50h50v-50h-50v-50h50v-30c0 -11 -9 -20 -20 -20h-450c-11 0 -20 9 -20 20v30h50v50h-50v50h50v50h-50v50h50v50h-50v30c0 12 9 20 20 20h450c11 0 20 -8 20 -20v-30zM240 175l125 75l-125 75v-150z" />
    <glyph glyph-name="music" unicode="&#x1f3b5;" horiz-adv-x="450" 
d="M350 475c28 0 50 -22 50 -50v-350c0 -27 -22 -50 -50 -50h-250c-27 0 -50 23 -50 50v350c0 28 23 50 50 50h250zM295 237c42 66 -42 114 -42 146h-30v-184c-13 5 -29 5 -45 -1c-28 -10 -45 -36 -38 -56c8 -21 40 -31 69 -22c30 10 44 25 44 49v131c39 -6 39 -49 35 -63
c-2 -5 1 -9 7 0z" />
    <glyph glyph-name="folder" unicode="&#x1f4c1;" horiz-adv-x="602" 
d="M528 325c23 0 24 -11 23 -24l-21 -226c-1 -13 -4 -25 -27 -25h-403c-23 0 -27 12 -28 25l-21 226c-1 13 0 24 23 24h454zM511 380l5 -20h-423l7 66c2 13 14 24 28 24h82c14 0 33 -7 43 -17l15 -15c9 -10 29 -18 43 -18h170c14 0 27 -9 30 -20z" />
    <glyph glyph-name="archive" unicode="&#xe800;" horiz-adv-x="590" 
d="M469 375v-25h-348v25c0 25 25 25 25 25h298s25 0 25 -25zM395 450c0 0 25 0 25 -25h-249c0 25 25 25 25 25h199zM519 350c15 -14 25 -18 19 -50c-5 -31 -34 -201 -38 -225c-5 -25 -31 -25 -31 -25h-348s-26 0 -30 25c-5 24 -33 194 -39 225c-6 32 4 36 19 50l15 15v-40
h418v40zM395 215v50h-35v-40h-130v40h-34v-50s0 -25 24 -25h150c25 0 25 25 25 25z" />
    <glyph glyph-name="air" unicode="&#x1f4a8;" horiz-adv-x="552" 
d="M92 342c-10 -10 -26 -8 -35 3c-9 10 -8 27 3 36c47 40 105 89 228 19c94 -52 128 -23 172 15c11 9 26 7 35 -3c9 -11 8 -27 -3 -36c-29 -26 -64 -55 -117 -55c-30 0 -66 9 -111 35c-94 53 -128 23 -172 -14zM460 287c11 9 26 8 35 -3s8 -27 -3 -36
c-29 -25 -64 -55 -117 -55c-30 0 -66 10 -111 35c-94 53 -128 23 -172 -14c-10 -9 -26 -8 -35 3s-8 27 3 36c47 40 105 90 228 20c94 -53 128 -23 172 14zM460 159c11 9 26 8 35 -3c9 -10 8 -27 -3 -36c-29 -25 -64 -55 -117 -55c-30 0 -66 10 -111 35
c-94 53 -128 24 -172 -14c-10 -9 -26 -8 -35 3s-8 27 3 36c47 40 105 90 228 20c94 -53 128 -23 172 14z" />
    <glyph glyph-name="line-graph" unicode="&#x1f4c8;" horiz-adv-x="601" 
d="M67 217c-12 3 -19 15 -16 28c3 12 15 19 27 16l49 -12l-26 -40zM512 211c9 8 24 7 32 -2c9 -9 8 -24 -1 -32l-126 -113c-4 -4 -10 -6 -15 -6s-10 2 -14 5l-143 110l-27 7l25 40l18 -4c3 -1 6 -2 8 -4l132 -102zM267 321l-175 -275c-4 -7 -12 -11 -19 -11c-4 0 -9 2 -12 4
c-11 7 -14 21 -7 31l187 294c3 6 8 9 14 10c6 2 12 1 18 -3l123 -78l113 163c7 10 21 13 31 5c11 -7 13 -21 6 -31l-126 -181c-7 -10 -20 -13 -31 -6z" />
    <glyph glyph-name="pie-chart" unicode="&#x25f4;" horiz-adv-x="520" 
d="M234 460v-184h-184c12 97 88 173 184 184zM287 460c103 -13 183 -102 183 -209c0 -116 -94 -211 -211 -211c-107 0 -195 80 -209 184h212c14 0 25 11 25 25v211z" />
    <glyph glyph-name="bar-graph" unicode="&#x1f4ca;" horiz-adv-x="500" 
d="M425 475c14 0 25 -11 25 -25v-425h-100v425c0 14 6 25 20 25h55zM275 325c14 0 25 -11 25 -25v-275h-100v275c0 14 6 25 20 25h55zM125 175c14 0 25 -11 25 -25v-125h-100v125c0 14 6 25 20 25h55z" />
    <glyph glyph-name="squared-minus" unicode="&#x229f;" horiz-adv-x="500" 
d="M400 450c28 0 50 -22 50 -50v-300c0 -27 -22 -50 -50 -50h-300c-27 0 -50 23 -50 50v300c0 28 23 50 50 50h300zM375 225v50h-250v-50h250z" />
    <glyph glyph-name="squared-plus" unicode="&#x229e;" horiz-adv-x="500" 
d="M400 450c28 0 50 -22 50 -50v-300c0 -27 -22 -50 -50 -50h-300c-27 0 -50 23 -50 50v300c0 28 23 50 50 50h300zM375 225v50h-100v100h-50v-100h-100v-50h100v-100h50v100h100z" />
    <glyph glyph-name="squared-cross" unicode="&#x274e;" horiz-adv-x="500" 
d="M400 450c28 0 50 -22 50 -50v-300c0 -27 -22 -50 -50 -50h-300c-27 0 -50 23 -50 50v300c0 28 23 50 50 50h300zM327 131l43 43l-77 76l77 77l-43 43l-77 -76l-76 76l-44 -43l77 -77l-77 -76l44 -43l76 76z" />
    <glyph glyph-name="switch" unicode="&#x21c6;" 
d="M400 371v-70h-250v-45l-100 80l100 85v-50h250zM550 161l-100 -80v45h-250v70h250v50z" />
    <glyph glyph-name="trash" unicode="&#xe729;" horiz-adv-x="480" 
d="M75 304c42 -24 105 -35 165 -35s123 11 165 35l-27 -243c-2 -12 -57 -49 -138 -50c-80 1 -136 38 -138 50zM319 454c65 -12 111 -41 111 -63v-5c0 -38 -85 -70 -190 -70s-190 32 -190 70v5c0 22 47 51 111 63l21 24c9 11 18 13 35 13h46c18 0 27 -2 35 -13zM292 398h42
s-46 55 -52 63c-5 6 -10 8 -16 8h-51c-7 0 -12 -2 -16 -8c-7 -8 -53 -63 -53 -63h42l32 33h41z" />
    <glyph glyph-name="upload" unicode="&#x1f4e4;" horiz-adv-x="601" 
d="M300 463l130 -122h-82v-128h-95v128h-83zM534 174c11 -7 19 -23 15 -36l-14 -77c-3 -13 -17 -23 -31 -23h-408c-14 0 -28 10 -31 23l-14 77c-3 13 4 29 16 36l79 54h49l-85 -65h89c2 0 5 -2 6 -4l20 -55h150l20 55c2 2 4 4 6 4h89l-85 65h49z" />
    <glyph glyph-name="download" unicode="&#x1f4e5;" horiz-adv-x="601" 
d="M534 174c11 -7 19 -23 15 -36l-14 -77c-3 -13 -17 -23 -31 -23h-408c-14 0 -28 10 -31 23l-14 77c-3 13 4 29 16 36l79 54h49l-85 -65h89c2 0 5 -2 6 -4l20 -55h150l20 55c2 2 4 4 6 4h89l-85 65h49zM430 335l-130 -122l-130 122h83v128h95v-128h82z" />
    <glyph glyph-name="save" unicode="&#x1f4be;" horiz-adv-x="500" 
d="M379 450l71 -78v-272c0 -27 -22 -50 -50 -50h-300c-27 0 -50 23 -50 50v300c0 28 23 50 50 50h279zM350 300v125h-200v-125c0 -13 11 -25 25 -25h150c14 0 25 12 25 25zM325 400v-100h-50v100h50z" />
    <glyph glyph-name="install" unicode="&#xe778;" horiz-adv-x="551" 
d="M492 228c6 -13 10 -34 7 -48l-17 -92c-2 -14 -15 -25 -29 -25h-356c-14 0 -27 11 -29 25l-17 92c-2 14 1 35 7 48l79 187c6 13 22 23 36 23h52l-10 -102h-67l127 -105l128 105h-68l-9 102h51c14 0 30 -10 37 -23zM458 162c2 15 -8 27 -22 27h-322c-14 0 -24 -12 -22 -27
l7 -37c2 -15 15 -26 28 -26h296c14 0 27 11 29 26z" />
    <glyph glyph-name="cloud" unicode="&#x2601;" 
d="M430 322c67 0 120 -52 120 -117s-53 -117 -120 -117h-289c-50 0 -91 40 -91 88c0 49 41 89 91 89c3 0 7 -1 10 -1c-1 6 -1 13 -1 19c0 72 59 130 133 130c60 0 111 -39 127 -93c7 1 14 2 20 2z" />
    <glyph glyph-name="upload-cloud" unicode="&#xe711;" 
d="M430 322c67 0 120 -52 120 -117s-53 -117 -120 -117h-95v95h53l-88 115l-87 -115h52v-95h-124c-50 0 -91 40 -91 88c0 49 41 89 91 89c3 0 7 0 10 -1c-1 6 -1 13 -1 19c0 72 59 130 133 130c60 0 111 -39 127 -93c7 1 14 2 20 2z" />
    <glyph glyph-name="bookmark" unicode="&#x1f516;" horiz-adv-x="280" 
d="M205 475c14 0 25 -11 25 -25v-425l-90 90l-90 -90v425c0 14 6 25 20 25h135z" />
    <glyph glyph-name="bookmarks" unicode="&#x1f4d1;" horiz-adv-x="375" 
d="M300 500c13 0 25 -11 25 -25v-425l-75 90v310c0 14 -12 25 -25 25h-50c0 14 6 25 20 25h105zM175 425c13 0 25 -11 25 -25v-400l-75 90l-75 -90v400c0 14 6 25 20 25h105z" />
    <glyph glyph-name="open-book" unicode="&#x1f4d6;" horiz-adv-x="550" 
d="M220 194v-34l-100 40v34zM220 298v-34l-100 40v34zM489 471c7 -4 11 -12 11 -21v-320c0 -10 -6 -19 -16 -23l-199 -80s-4 -1 -5 -1c-2 0 -3 -1 -5 -1s-3 1 -5 1c-1 0 -5 1 -5 1l-199 80c-10 4 -16 13 -16 23v320c0 9 4 17 11 21c7 5 16 6 23 3l191 -77l191 77
c7 3 16 2 23 -3zM250 77v280l-160 64v-280zM460 141v280l-160 -64v-280zM430 234v-34l-100 -40v34zM430 338v-34l-100 -40v34z" />
    <glyph glyph-name="play" unicode="&#x25b6;" horiz-adv-x="350" 
d="M293 263c0 0 7 -5 7 -13c0 -7 -7 -12 -7 -12l-214 -133c-16 -10 -29 -3 -29 17v257c0 20 13 27 29 17z" />
    <glyph glyph-name="paus" unicode="&#x2016;" horiz-adv-x="365" 
d="M270 425c24 0 45 -7 45 -32v-285c0 -25 -21 -33 -45 -33c-25 0 -45 8 -45 33v285c0 25 20 32 45 32zM95 425c24 0 45 -7 45 -32v-285c0 -25 -21 -33 -45 -33c-25 0 -45 8 -45 33v285c0 25 20 32 45 32z" />
    <glyph glyph-name="record" unicode="&#x25cf;" horiz-adv-x="450" 
d="M225 425c97 0 175 -78 175 -175c0 -96 -78 -175 -175 -175s-175 79 -175 175c0 97 78 175 175 175z" />
    <glyph glyph-name="stop" unicode="&#x25a0;" horiz-adv-x="400" 
d="M313 400c24 0 37 -7 37 -32v-235c0 -25 -13 -33 -37 -33h-225c-25 0 -38 8 -38 33v235c0 25 13 32 38 32h225z" />
    <glyph glyph-name="ff" unicode="&#x23e9;" horiz-adv-x="540" 
d="M483 262c0 0 7 -5 7 -12s-7 -11 -7 -11l-186 -124c-15 -10 -26 -3 -26 15v241c0 18 11 25 26 15zM256 262c0 0 7 -5 7 -12s-7 -11 -7 -11l-180 -124c-14 -10 -26 -3 -26 15v241c0 18 12 25 26 15z" />
    <glyph glyph-name="fb" unicode="&#x23ea;" horiz-adv-x="540" 
d="M50 250c0 7 7 12 7 12l187 124c14 10 26 3 26 -15v-241c0 -18 -12 -25 -26 -15l-187 124s-7 4 -7 11zM277 250c0 7 7 12 7 12l180 124c14 10 26 3 26 -15v-241c0 -18 -12 -25 -26 -15l-180 124s-7 4 -7 11z" />
    <glyph glyph-name="to-start" unicode="&#x23ee;" horiz-adv-x="400" 
d="M137 250c0 7 7 12 7 12l182 114c13 9 24 2 24 -15v-221c0 -17 -11 -24 -24 -15l-182 114s-7 5 -7 11zM50 367c0 22 15 29 38 29c22 0 37 -7 37 -29v-233c0 -22 -15 -29 -37 -29c-23 0 -38 7 -38 29v233z" />
    <glyph glyph-name="to-end" unicode="&#x23ed;" horiz-adv-x="400" 
d="M256 262c0 0 7 -5 7 -12c0 -6 -7 -11 -7 -11l-181 -114c-14 -9 -25 -2 -25 15v221c0 17 11 24 25 15zM313 396c22 0 37 -7 37 -29v-233c0 -22 -15 -29 -37 -29c-23 0 -38 7 -38 29v233c0 22 15 29 38 29z" />
    <glyph glyph-name="resize-full" unicode="&#xe744;" horiz-adv-x="496" 
d="M288 448h158v-158l-50 62l-73 -76l-50 50l76 73zM173 226l50 -50l-76 -73l61 -50h-158v158l50 -61z" />
    <glyph glyph-name="resize-small" unicode="&#xe746;" horiz-adv-x="550" 
d="M128 148l-53 50h148v-148l-50 53l-73 -78l-50 50zM500 425l-77 -72l52 -50h-147v147l50 -52l72 77z" />
    <glyph glyph-name="volume" unicode="&#x23f7;" horiz-adv-x="548" 
d="M498 165c0 -22 -18 -40 -40 -40h-390c-22 0 -24 9 -5 20l401 226c19 12 34 3 34 -19v-187z" />
    <glyph glyph-name="infinity" unicode="&#x221e;" 
d="M448 360c49 0 102 -28 102 -110c0 -81 -53 -110 -102 -110c-52 0 -109 29 -148 73c-38 -44 -95 -73 -147 -73v0c-50 0 -103 29 -103 110c0 82 53 110 103 110c52 0 109 -28 147 -72c39 44 96 72 148 72zM153 184c41 0 90 28 120 66c-30 39 -79 66 -120 66
c-38 0 -57 -22 -57 -66c0 -43 19 -66 57 -66zM448 184c38 0 57 23 57 66c0 44 -19 66 -57 66c-42 0 -91 -27 -120 -66c29 -38 78 -66 120 -66z" />
    <glyph glyph-name="flow-cascade" unicode="&#x1f568;" horiz-adv-x="420" 
d="M310 135c33 0 60 -26 60 -60c0 -33 -27 -60 -60 -60c-25 0 -46 15 -55 37h-82c-64 0 -87 51 -87 86v232c-21 10 -36 31 -36 55c0 34 27 60 60 60s60 -26 60 -60c0 -24 -15 -45 -36 -55v-57c0 -9 3 -39 39 -39h82c9 22 30 36 55 36c33 0 60 -26 60 -60
c0 -33 -27 -60 -60 -60c-25 0 -46 15 -55 37h-82c-16 0 -28 3 -39 8v-97c0 -9 3 -39 39 -39h82c9 22 30 36 55 36zM310 285c-19 0 -35 -15 -35 -35c0 -19 16 -34 35 -34s35 15 35 34c0 20 -16 35 -35 35zM75 425c0 -19 16 -34 35 -34s35 15 35 34c0 20 -16 35 -35 35
s-35 -15 -35 -35zM310 41c19 0 35 15 35 34c0 20 -16 35 -35 35s-35 -15 -35 -35c0 -19 16 -34 35 -34z" />
    <glyph glyph-name="flow-branch" unicode="&#x1f569;" horiz-adv-x="420" 
d="M370 400c0 -25 -15 -46 -37 -55c-8 -83 -70 -103 -116 -117c-45 -14 -76 -24 -82 -73c21 -9 35 -30 35 -55c0 -33 -27 -60 -60 -60s-60 27 -60 60c0 25 15 46 36 56v189c-21 10 -36 31 -36 55c0 34 27 60 60 60s60 -26 60 -60c0 -24 -15 -45 -36 -55v-102
c21 15 47 23 69 30c45 14 77 24 82 73c-20 9 -35 30 -35 54c0 34 27 60 60 60s60 -26 60 -60zM76 400c0 -19 15 -34 34 -34s35 15 35 34c0 20 -16 35 -35 35s-34 -15 -34 -35zM110 66c19 0 35 15 35 34c0 20 -16 35 -35 35s-34 -15 -34 -35c0 -19 15 -34 34 -34zM310 366
c19 0 35 15 35 34c0 20 -16 35 -35 35s-34 -15 -34 -35c0 -19 15 -34 34 -34z" />
    <glyph glyph-name="flow-tree" unicode="&#x1f56a;" horiz-adv-x="570" 
d="M484 131c21 -10 36 -31 36 -56c0 -33 -27 -60 -60 -60s-60 27 -60 60c0 25 15 46 36 56v57c0 9 -3 39 -38 39h-50c-16 0 -28 2 -39 6v-102c21 -10 36 -31 36 -56c0 -33 -27 -60 -60 -60s-60 27 -60 60c0 25 15 46 36 56v102c-10 -4 -23 -6 -38 -6h-50
c-37 0 -39 -33 -39 -39v-57c21 -10 36 -31 36 -56c0 -33 -27 -60 -60 -60s-60 27 -60 60c0 25 15 46 36 56v57c0 35 23 86 87 86h50c37 0 38 20 38 26v70c-21 10 -36 31 -36 55c0 34 27 60 60 60s60 -26 60 -60c0 -24 -15 -45 -36 -55v-70c0 -8 3 -26 39 -26h50
c63 0 86 -51 86 -86v-57zM145 75c0 20 -16 35 -35 35s-34 -15 -34 -35c0 -19 15 -34 34 -34s35 15 35 34zM251 425c0 -19 15 -34 34 -34s35 15 35 34c0 20 -16 35 -35 35s-34 -15 -34 -35zM320 75c0 20 -16 35 -35 35s-34 -15 -34 -35c0 -19 15 -34 34 -34s35 15 35 34z
M460 41c19 0 35 15 35 34c0 20 -16 35 -35 35s-34 -15 -34 -35c0 -19 15 -34 34 -34z" />
    <glyph glyph-name="flow-line" unicode="&#x1f56b;" horiz-adv-x="220" 
d="M134 156c21 -10 36 -31 36 -56c0 -33 -27 -60 -60 -60s-60 27 -60 60c0 25 15 46 36 56v189c-21 10 -36 31 -36 55c0 34 27 60 60 60s60 -26 60 -60c0 -24 -15 -45 -36 -55v-189zM76 400c0 -19 15 -34 34 -34s35 15 35 34c0 20 -16 35 -35 35s-34 -15 -34 -35zM110 66
c19 0 35 15 35 34c0 20 -16 35 -35 35s-34 -15 -34 -35c0 -19 15 -34 34 -34z" />
    <glyph glyph-name="flow-parallel" unicode="&#x1f56c;" horiz-adv-x="420" 
d="M170 400c0 -24 -15 -45 -36 -55v-189c21 -10 36 -31 36 -56c0 -33 -27 -60 -60 -60s-60 27 -60 60c0 25 15 46 36 56v189c-21 10 -36 31 -36 55c0 34 27 60 60 60s60 -26 60 -60zM145 100c0 20 -16 35 -35 35s-34 -15 -34 -35c0 -19 15 -34 34 -34s35 15 35 34zM110 366
c19 0 35 15 35 34c0 20 -16 35 -35 35s-34 -15 -34 -35c0 -19 15 -34 34 -34zM334 156c21 -10 36 -31 36 -56c0 -33 -27 -60 -60 -60s-60 27 -60 60c0 25 15 46 36 56v189c-21 10 -36 31 -36 55c0 34 27 60 60 60s60 -26 60 -60c0 -24 -15 -45 -36 -55v-189zM276 400
c0 -19 15 -34 34 -34s35 15 35 34c0 20 -16 35 -35 35s-34 -15 -34 -35zM310 66c19 0 35 15 35 34c0 20 -16 35 -35 35s-34 -15 -34 -35c0 -19 15 -34 34 -34z" />
    <glyph glyph-name="left-bold" unicode="&#xe4ad;" horiz-adv-x="465" 
d="M239 440v-95h176v-189h-176v-96l-189 190z" />
    <glyph glyph-name="down-bold" unicode="&#xe4b0;" horiz-adv-x="480" 
d="M430 258l-190 -190l-190 190h96v175h188v-175h96z" />
    <glyph glyph-name="up-bold" unicode="&#xe4af;" horiz-adv-x="480" 
d="M430 243h-96v-175h-188v175h-96l190 190z" />
    <glyph glyph-name="right-bold" unicode="&#xe4ae;" horiz-adv-x="465" 
d="M225 440l190 -190l-190 -190v96h-175v189h175v95z" />
    <glyph glyph-name="left" unicode="&#x2b05;" horiz-adv-x="465" 
d="M239 85l-189 165l189 165v-95h176v-139h-176v-96z" />
    <glyph glyph-name="down" unicode="&#x2b07;" horiz-adv-x="430" 
d="M380 258l-165 -190l-165 190h96v175h138v-175h96z" />
    <glyph glyph-name="up" unicode="&#x2b06;" horiz-adv-x="430" 
d="M380 243h-96v-175h-138v175h-96l165 190z" />
    <glyph glyph-name="right" unicode="&#x27a1;" horiz-adv-x="465" 
d="M225 415l190 -165l-190 -165v96h-175v139h175v95z" />
    <glyph glyph-name="circled-left" unicode="&#xe759;" horiz-adv-x="560" 
d="M510 250c0 -127 -103 -230 -230 -230s-230 103 -230 230c0 128 103 230 230 230s230 -102 230 -230zM100 250c0 -99 81 -180 180 -180s180 81 180 180c0 100 -81 180 -180 180s-180 -80 -180 -180zM376 205h-102v-56l-95 101l95 102v-57h102v-90z" />
    <glyph glyph-name="circled-down" unicode="&#xe758;" horiz-adv-x="560" 
d="M280 480c127 0 230 -103 230 -230s-103 -230 -230 -230s-230 103 -230 230s103 230 230 230zM280 70c99 0 180 81 180 180c0 100 -81 180 -180 180s-180 -80 -180 -180c0 -99 81 -180 180 -180zM325 347v-103h56l-101 -95l-101 95h56v103h90z" />
    <glyph glyph-name="circled-up" unicode="&#xe75b;" horiz-adv-x="560" 
d="M280 20c-127 0 -230 103 -230 230c0 128 103 230 230 230s230 -102 230 -230c0 -127 -103 -230 -230 -230zM280 430c-99 0 -180 -80 -180 -180c0 -99 81 -180 180 -180c100 0 180 81 180 180c0 100 -80 180 -180 180zM235 154v102h-56l101 96l101 -96h-56v-102h-90z" />
    <glyph glyph-name="circled-right" unicode="&#xe75a;" horiz-adv-x="560" 
d="M50 250c0 127 103 230 230 230s230 -103 230 -230s-103 -230 -230 -230s-230 103 -230 230zM460 250c0 100 -80 180 -180 180c-99 0 -180 -80 -180 -180c0 -99 81 -180 180 -180c100 0 180 81 180 180zM184 295h102v57l95 -102l-95 -101v56h-102v90z" />
    <glyph glyph-name="triangle-left" unicode="&#x25c2;" horiz-adv-x="300" 
d="M250 365v-230l-200 115z" />
    <glyph glyph-name="triangle-down" unicode="&#x25be;" horiz-adv-x="330" 
d="M280 350l-115 -200l-115 200h230z" />
    <glyph glyph-name="triangle-up" unicode="&#x25b4;" horiz-adv-x="330" 
d="M50 150l115 200l115 -200h-230z" />
    <glyph glyph-name="triangle-right" unicode="&#x25b8;" horiz-adv-x="300" 
d="M50 365l200 -115l-200 -115v230z" />
    <glyph glyph-name="chevron-left" unicode="&#xe75d;" horiz-adv-x="270" 
d="M171 388c10 10 29 10 40 0c12 -11 12 -26 0 -40l-93 -98l93 -97c12 -14 12 -29 0 -40c-11 -11 -30 -10 -40 0c-10 11 -113 118 -113 118c-5 5 -8 12 -8 19c0 8 3 15 8 20c0 0 103 107 113 118z" />
    <glyph glyph-name="chevron-down" unicode="&#xe75c;" horiz-adv-x="390" 
d="M332 286c-10 -10 -117 -112 -117 -112c-6 -6 -13 -9 -20 -9s-14 3 -20 9c0 0 -107 102 -117 112c-10 11 -11 30 0 41s26 12 39 0l98 -94l98 94c13 12 28 11 39 0s10 -30 0 -41z" />
    <glyph glyph-name="chevron-up" unicode="&#xe75f;" horiz-adv-x="390" 
d="M332 215c10 -11 11 -30 0 -41s-26 -12 -39 0l-98 94l-98 -94c-13 -12 -28 -11 -39 0s-10 30 0 41c10 10 117 112 117 112c6 6 13 8 20 8s14 -2 20 -8c0 0 107 -102 117 -112z" />
    <glyph glyph-name="chevron-right" unicode="&#xe75e;" horiz-adv-x="270" 
d="M99 388c11 -11 113 -118 113 -118c5 -5 8 -12 8 -20c0 -7 -3 -14 -8 -19c0 0 -102 -107 -113 -118c-10 -10 -29 -11 -40 0s-12 26 0 40l93 97l-93 98c-12 14 -11 29 0 40c11 10 30 10 40 0z" />
    <glyph glyph-name="chevron-small-left" unicode="&#xe761;" horiz-adv-x="232" 
d="M176 165c7 -7 7 -18 0 -24c-7 -7 -18 -7 -24 0l-96 97c-7 7 -7 18 0 25l96 97c6 7 17 7 24 0c7 -6 7 -17 0 -24l-78 -86z" />
    <glyph glyph-name="sound" unicode="&#x1f50a;" horiz-adv-x="556" 
d="M138 369c28 28 110 -8 183 -81s109 -155 81 -183s-203 -151 -309 -45s17 281 45 309zM370 129c8 9 -12 73 -74 134c-61 62 -125 82 -134 74c-8 -9 12 -73 73 -135c62 -61 126 -81 135 -73zM373 326c-6 0 -12 3 -17 8c-10 9 -10 25 0 35l47 48c10 9 26 9 36 0
c9 -10 9 -26 0 -36l-48 -47c-5 -5 -11 -8 -18 -8zM283 388c-12 7 -16 22 -9 34l27 48c7 12 22 17 34 10s16 -22 9 -34l-27 -48c-4 -8 -13 -13 -21 -13c-5 0 -9 1 -13 3zM502 313c7 -12 2 -28 -10 -34l-48 -27c-4 -2 -8 -4 -12 -4c-9 0 -17 5 -22 13c-7 12 -2 28 10 34l48 27
c12 7 27 3 34 -9z" />
    <glyph glyph-name="chevron-small-down" unicode="&#xe760;" horiz-adv-x="332" 
d="M252 310c6 7 17 7 24 0c7 -6 7 -17 0 -24l-98 -96c-6 -6 -17 -6 -24 0l-98 96c-7 7 -7 18 0 24c7 7 18 7 25 0l85 -78z" />
    <glyph glyph-name="chevron-small-up" unicode="&#xe763;" horiz-adv-x="332" 
d="M81 190c-7 -6 -18 -6 -25 0c-7 7 -7 18 0 25l98 95c7 7 18 7 24 0l98 -95c7 -7 7 -18 0 -25c-7 -6 -18 -6 -25 0l-85 79z" />
    <glyph glyph-name="chevron-small-right" unicode="&#xe762;" horiz-adv-x="232" 
d="M56 165l79 85l-79 86c-7 7 -7 18 0 24c7 7 18 7 24 0l96 -97c7 -7 7 -18 0 -25l-96 -97c-6 -7 -17 -7 -24 0c-7 6 -7 17 0 24z" />
    <glyph glyph-name="chevron-thin-left" unicode="&#xe765;" horiz-adv-x="332" 
d="M276 65c7 -7 7 -18 0 -24c-7 -7 -18 -7 -24 0l-196 197c-7 7 -7 18 0 25l196 197c6 7 17 7 24 0c7 -6 7 -17 0 -24l-179 -186z" />
    <glyph glyph-name="chevron-thin-down" unicode="&#xe764;" horiz-adv-x="532" 
d="M81 360l185 -178l186 178c6 7 17 7 24 0c7 -6 7 -17 0 -24l-198 -196c-6 -6 -17 -6 -24 0l-198 196c-7 7 -7 18 0 24c7 7 18 7 25 0z" />
    <glyph glyph-name="chevron-thin-up" unicode="&#xe767;" horiz-adv-x="532" 
d="M452 140l-186 179l-185 -179c-7 -6 -18 -6 -25 0c-7 7 -7 18 0 25l198 195c7 7 18 7 24 0l198 -195c7 -7 7 -18 0 -25c-7 -6 -18 -6 -24 0z" />
    <glyph glyph-name="chevron-thin-right" unicode="&#xe766;" horiz-adv-x="332" 
d="M56 65l179 185l-179 186c-7 7 -7 18 0 24c7 7 18 7 24 0l196 -197c7 -7 7 -18 0 -25l-196 -197c-6 -7 -17 -7 -24 0c-7 6 -7 17 0 24z" />
    <glyph glyph-name="left-thin" unicode="&#x2190;" horiz-adv-x="590" 
d="M170 125l-120 125l120 125v-80h370v-89h-370v-81z" />
    <glyph glyph-name="down-thin" unicode="&#x2193;" horiz-adv-x="350" 
d="M300 125l-125 -120l-125 120h81v370h88v-370h81z" />
    <glyph glyph-name="up-thin" unicode="&#x2191;" horiz-adv-x="350" 
d="M300 376h-81v-371h-88v371h-81l125 119z" />
    <glyph glyph-name="right-thin" unicode="&#x2192;" horiz-adv-x="590" 
d="M421 125v81h-371v89h371v80l119 -125z" />
    <glyph glyph-name="arrow-combo" unicode="&#xe74f;" horiz-adv-x="330" 
d="M165 500l115 -182h-230zM165 0l-115 183h230z" />
    <glyph glyph-name="three-dots" unicode="&#x23f6;" horiz-adv-x="560" 
d="M105 305c30 0 55 -24 55 -55c0 -30 -25 -55 -55 -55s-55 25 -55 55c0 31 25 55 55 55zM280 305c30 0 55 -24 55 -55c0 -30 -25 -55 -55 -55s-55 25 -55 55c0 31 25 55 55 55zM455 305c30 0 55 -24 55 -55c0 -30 -25 -55 -55 -55s-55 25 -55 55c0 31 25 55 55 55z" />
    <glyph glyph-name="two-dots" unicode="&#x23f5;" horiz-adv-x="385" 
d="M105 305c30 0 55 -24 55 -55c0 -30 -25 -55 -55 -55c-31 0 -55 25 -55 55c0 31 24 55 55 55zM280 305c30 0 55 -24 55 -55c0 -30 -25 -55 -55 -55c-31 0 -55 25 -55 55c0 31 24 55 55 55z" />
    <glyph glyph-name="dot" unicode="&#x23f4;" horiz-adv-x="210" 
d="M105 305c30 0 55 -24 55 -55c0 -30 -25 -55 -55 -55s-55 25 -55 55c0 31 25 55 55 55z" />
    <glyph glyph-name="paper-plane" unicode="&#x1f53f;" horiz-adv-x="562" 
d="M498 435c9 3 15 -3 13 -11c-2 -7 -70 -303 -73 -313c-2 -9 -11 -13 -19 -9c-8 5 -124 67 -124 67v0l-15 8l11 13v0s194 210 197 213s-2 8 -5 5c-4 -3 -275 -201 -275 -201l-56 22v0l-95 38c-9 3 -7 10 0 12c8 3 433 153 441 156zM207 71v102l80 -41s-65 -58 -71 -64
c-5 -4 -9 -3 -9 3z" />
    <glyph glyph-name="circled-cross" unicode="&#x2716;" horiz-adv-x="520" 
d="M260 460c116 0 210 -94 210 -210s-94 -210 -210 -210s-210 94 -210 210s94 210 210 210zM303 250l77 77l-43 43l-77 -76l-76 76l-44 -43l77 -77l-77 -76l44 -43l76 76l77 -76l43 43z" />
    <glyph glyph-name="cc" unicode="&#x1f545;" horiz-adv-x="582" 
d="M288 490c132 2 241 -104 243 -236c2 -133 -104 -242 -237 -244c-132 -1 -241 105 -243 237c-2 133 104 242 237 243zM294 61c104 1 188 87 187 192c-2 105 -88 188 -192 187c-105 -1 -189 -87 -187 -192c1 -105 87 -188 192 -187zM232 210c14 0 23 6 29 20l28 -15
c-6 -11 -14 -20 -25 -26c-11 -7 -22 -10 -35 -10c-21 0 -37 6 -50 19c-13 12 -19 30 -19 52s6 40 19 53s29 19 48 19c29 0 49 -11 62 -33l-31 -16c-3 6 -7 11 -12 14s-9 4 -14 4c-20 0 -30 -13 -30 -41c0 -12 2 -22 7 -29c6 -7 13 -11 23 -11zM365 210c13 0 23 6 28 20
l29 -15c-6 -11 -15 -20 -25 -26c-11 -7 -23 -10 -35 -10c-21 0 -38 6 -50 19c-13 12 -19 30 -19 52s7 40 19 53c13 13 29 19 49 19c28 0 48 -11 60 -33l-30 -16c-3 6 -7 11 -12 14s-10 4 -14 4c-20 0 -31 -13 -31 -41c0 -12 3 -22 8 -29s13 -11 23 -11z" />
    <glyph glyph-name="cc-by" unicode="&#x1f546;" horiz-adv-x="580" 
d="M290 338c-22 0 -33 11 -33 34c0 22 11 34 33 34s34 -12 34 -34c0 -23 -12 -34 -34 -34zM339 325c4 0 8 -1 11 -4s5 -7 5 -11v-98h-28v-117h-74v117h-28v98c0 4 2 8 5 11s7 4 11 4h98zM290 490c133 0 240 -107 240 -240c0 -132 -107 -240 -240 -240
c-132 0 -240 108 -240 240c0 133 108 240 240 240zM290 54c108 0 196 88 196 196c0 109 -88 196 -196 196s-196 -87 -196 -196c0 -108 88 -196 196 -196z" />
    <glyph glyph-name="cc-nc" unicode="&#x1f547;" horiz-adv-x="580" 
d="M290 490c133 0 240 -107 240 -240c0 -132 -107 -240 -240 -240c-132 0 -240 108 -240 240c0 133 108 240 240 240zM105 315c-7 -20 -11 -42 -11 -65c0 -108 88 -196 196 -196c74 0 139 41 172 102l-89 40c-3 -16 -11 -28 -23 -37c-12 -10 -27 -16 -43 -17v-37h-28v37
c-27 0 -51 10 -73 29l33 33c16 -14 34 -22 54 -22c8 0 15 2 21 6s9 10 9 18c0 6 -2 11 -7 15l-23 10l-28 13l-38 16zM358 254l121 -54c5 16 7 33 7 50c0 109 -88 196 -196 196c-69 0 -129 -35 -164 -89l91 -41c4 13 12 23 23 31c11 7 24 11 39 12v37h28v-37
c22 -1 42 -8 60 -22l-31 -32c-14 9 -28 14 -42 14c-7 0 -14 -1 -19 -4c-6 -3 -9 -8 -9 -15c0 -2 0 -4 2 -6l30 -14l21 -9z" />
    <glyph glyph-name="cc-nc-eu" unicode="&#x1f548;" horiz-adv-x="580" 
d="M290 490c133 0 240 -107 240 -240c0 -132 -107 -240 -240 -240c-132 0 -240 108 -240 240c0 133 108 240 240 240zM105 314c-7 -20 -11 -41 -11 -64c0 -108 88 -196 196 -196c74 0 138 41 172 102l-123 54h-87c3 -12 7 -21 13 -28c13 -14 32 -20 52 -20c18 0 37 6 46 10
l9 -45c-13 -7 -37 -15 -62 -15c-40 0 -76 16 -98 46c-11 14 -19 31 -23 52h-26v29h22v7c0 4 1 8 1 12h-23v28h5zM349 258l131 -58c4 16 6 33 6 50c0 109 -88 196 -196 196c-69 0 -130 -35 -165 -89l79 -35c4 7 9 13 14 19c23 26 55 41 92 41c25 0 46 -5 61 -12l-12 -46
c-10 5 -26 10 -44 10c-19 0 -37 -6 -50 -22c-3 -3 -6 -8 -8 -14l28 -12h68v-28h-4z" />
    <glyph glyph-name="cc-nc-jp" unicode="&#x1f549;" horiz-adv-x="580" 
d="M290 490c133 0 240 -107 240 -240c0 -132 -107 -240 -240 -240c-132 0 -240 108 -240 240c0 133 108 240 240 240zM103 308c-6 -18 -9 -37 -9 -58c0 -108 88 -196 196 -196c72 0 134 39 168 96l-76 34v-34h-63v-54h-59v54h-62v37h62v18l-6 12h-56v37h27zM319 187h56
l-53 24l-3 -6v-18zM382 237l96 -43c5 18 8 37 8 56c0 109 -88 196 -196 196c-71 0 -133 -37 -167 -94l79 -35l-27 49h64l38 -83l23 -10l41 93h64l-61 -112h38v-17z" />
    <glyph glyph-name="cc-sa" unicode="&#x1f54a;" horiz-adv-x="580" 
d="M289 377c38 0 68 -12 90 -37c22 -24 33 -55 33 -93c0 -37 -11 -67 -34 -92c-24 -24 -54 -37 -90 -37c-28 0 -51 9 -71 25c-19 16 -31 39 -35 69h60c2 -29 19 -43 53 -43c17 0 30 7 41 21c10 15 15 34 15 59s-5 45 -14 58c-10 13 -23 20 -41 20c-32 0 -50 -14 -54 -43h18
l-48 -47l-47 47h18c5 30 17 53 36 69s42 24 70 24zM290 490c133 0 240 -107 240 -240c0 -132 -107 -240 -240 -240c-132 0 -240 108 -240 240c0 133 108 240 240 240zM290 54c108 0 196 88 196 196c0 109 -88 196 -196 196s-196 -87 -196 -196c0 -108 88 -196 196 -196z" />
    <glyph glyph-name="cc-nd" unicode="&#x1f54b;" horiz-adv-x="580" 
d="M203 266v41h174v-41h-174zM203 189v41h174v-41h-174zM290 490c133 0 240 -107 240 -240c0 -132 -107 -240 -240 -240c-132 0 -240 108 -240 240c0 133 108 240 240 240zM290 54c108 0 196 88 196 196c0 109 -88 196 -196 196s-196 -87 -196 -196c0 -108 88 -196 196 -196
z" />
    <glyph glyph-name="cc-zero" unicode="&#x1f54d;" horiz-adv-x="580" 
d="M290 389c79 0 99 -75 99 -139c0 -63 -20 -138 -99 -138s-99 75 -99 138c0 64 20 139 99 139zM247 250c0 -8 1 -21 2 -33l53 97c6 10 3 16 -3 21c-3 1 -6 2 -9 2c-41 0 -43 -59 -43 -87zM290 164c41 0 43 59 43 86c0 11 -1 27 -3 42l-59 -102c-9 -12 -3 -19 6 -23
c1 -1 2 -1 3 -1c0 0 1 0 1 -1c3 0 6 -1 9 -1zM290 490c133 0 240 -107 240 -240c0 -132 -107 -240 -240 -240c-132 0 -240 108 -240 240c0 133 108 240 240 240zM290 54c108 0 196 88 196 196c0 109 -88 196 -196 196s-196 -87 -196 -196c0 -108 88 -196 196 -196z" />
    <glyph glyph-name="cc-share" unicode="&#x1f54e;" horiz-adv-x="580" 
d="M388 319c4 0 7 -1 10 -4c2 -2 4 -6 4 -9v-177c0 -4 -2 -7 -4 -9c-3 -3 -6 -4 -10 -4h-130c-4 0 -7 1 -10 4c-2 2 -4 5 -4 9v52h-52c-4 0 -7 2 -9 4c-3 3 -4 6 -4 10v176c0 4 1 7 3 9c2 3 5 4 9 5h132c3 0 7 -2 9 -4c3 -3 4 -6 4 -10v-52h52zM256 319h54v39h-105v-150h39
v98c0 3 1 6 4 9c2 2 5 3 8 4zM375 142v151h-105v-151h105zM290 490c133 0 240 -107 240 -240c0 -132 -107 -240 -240 -240c-132 0 -240 108 -240 240c0 133 108 240 240 240zM290 54c108 0 196 88 196 196c0 109 -88 196 -196 196s-196 -87 -196 -196
c0 -108 88 -196 196 -196z" />
    <glyph glyph-name="cc-remix" unicode="&#x1f54f;" horiz-adv-x="580" 
d="M447 246l5 -2v-68l-5 -2l-58 -25l-2 -1l-3 1l-126 52l-4 2l-62 -26l-62 27v61l58 24l-1 1v68l65 28l147 -61v-59zM379 167v43h-1v1l-110 45v-43l110 -46v1zM386 223l39 16l-36 15l-38 -16zM437 186v42l-43 -18v-42zM290 490c133 0 240 -107 240 -240
c0 -132 -107 -240 -240 -240c-132 0 -240 108 -240 240c0 133 108 240 240 240zM290 54c108 0 196 88 196 196c0 109 -88 196 -196 196s-196 -87 -196 -196c0 -108 88 -196 196 -196z" />
    <glyph glyph-name="db-logo" unicode="&#x1f5f9;" horiz-adv-x="463" 
d="M323 195c15 -28 15 -61 -2 -90c-27 -46 -82 -61 -133 -31l-32 18l-54 -92l-28 16l103 179c-21 -3 -44 1 -67 14l-60 35l93 162l61 -35c22 -13 38 -31 46 -50l103 179l29 -17l-54 -93l32 -18c51 -29 66 -85 39 -131c-16 -29 -45 -45 -76 -46zM345 346l-32 19l-62 -108
c0 -1 -1 -2 -1 -3l31 -18c34 -20 70 -10 88 22c19 32 10 68 -24 88zM125 235c34 -20 70 -10 88 22c19 32 10 69 -24 88l-32 19l-64 -111zM203 100c34 -20 69 -10 88 22c18 32 9 68 -25 88l-31 18l-2 -2l-62 -108z" />
    <glyph glyph-name="db-shape" unicode="&#x1f5fa;" horiz-adv-x="550" 
d="M275 475c184 0 225 -42 225 -225c0 -184 -41 -225 -225 -225c-183 0 -225 41 -225 225c0 183 42 225 225 225z" />
    <glyph glyph-name="cc-pd" unicode="&#x1f54c;" horiz-adv-x="580" 
d="M290 490c133 0 240 -107 240 -240c0 -132 -107 -240 -240 -240c-132 0 -240 108 -240 240c0 133 108 240 240 240zM105 314c-7 -20 -11 -41 -11 -64c0 -108 88 -196 196 -196c74 0 138 41 172 102l-212 94c1 -31 16 -69 52 -69c4 0 18 0 32 13l3 3l35 -42
c-3 -3 -6 -5 -9 -8c-18 -12 -41 -21 -68 -21c-45 0 -116 27 -116 123c0 11 1 21 3 31zM260 297l220 -97c4 16 6 33 6 50c0 109 -88 196 -196 196c-69 0 -130 -35 -165 -89l74 -33c19 30 52 51 98 51c19 0 49 -4 75 -27l-39 -40c-2 2 -4 4 -7 6c-7 5 -15 8 -26 8
c-19 0 -32 -11 -40 -25z" />
    <glyph glyph-name="phone" unicode="&#x1f4de;" horiz-adv-x="500" 
d="M281 220c39 39 77 85 59 103c-26 26 -48 42 -2 99c46 58 76 14 101 -11c29 -29 2 -138 -105 -244c-107 -107 -215 -135 -244 -106c-25 25 -69 56 -12 102s73 23 99 -3c18 -18 64 20 104 60z" />
    <glyph glyph-name="mobile" unicode="&#x1f4f1;" horiz-adv-x="390" 
d="M290 495c28 0 50 -22 50 -50v-390c0 -27 -22 -50 -50 -50h-190c-27 0 -50 23 -50 50v390c0 28 23 50 50 50h190zM195 25c20 0 35 12 35 25c0 14 -15 25 -35 25c-19 0 -35 -11 -35 -25c0 -13 16 -25 35 -25zM300 100v330h-210v-330h210z" />
    <glyph glyph-name="space" unicode="&#xf020;" horiz-adv-x="500" 
 />
  </font>
</defs>
</svg>
