<svg id="info_1_" data-name="info (1)" xmlns="http://www.w3.org/2000/svg" width="35.104" height="35.104" viewBox="0 0 35.104 35.104">
  <path id="Path_30" data-name="Path 30" d="M17.552,0A17.552,17.552,0,1,0,35.1,17.552,17.571,17.571,0,0,0,17.552,0Zm0,33.754a16.2,16.2,0,1,1,16.2-16.2A16.221,16.221,0,0,1,17.552,33.754Z"/>
  <path id="Path_31" data-name="Path 31" d="M25.675,37a.674.674,0,0,0-.675.675v1.35a.675.675,0,0,0,1.35,0v-1.35A.674.674,0,0,0,25.675,37Z" transform="translate(-8.123 -12.022)"/>
  <path id="Path_32" data-name="Path 32" d="M23.477,9H23.4A5.4,5.4,0,0,0,18,14.4a.675.675,0,0,0,1.35,0,4.05,4.05,0,0,1,4.109-4.05,4.128,4.128,0,0,1,3.992,3.992,4.032,4.032,0,0,1-1.857,3.465,6.439,6.439,0,0,0-2.868,5.476V25.2a.675.675,0,0,0,1.35,0V23.283a5.164,5.164,0,0,1,2.249-4.342A5.374,5.374,0,0,0,28.8,14.324,5.438,5.438,0,0,0,23.477,9Z" transform="translate(-5.849 -2.924)"/>
</svg>
