<svg xmlns="http://www.w3.org/2000/svg" width="31.629" height="30.027" viewBox="0 0 31.629 30.027">
  <g id="eraser" transform="translate(0 -12.972)">
    <g id="Page-1_30_" transform="translate(0 12.972)">
      <g id="_x30_31---Eraser" transform="translate(0 0)">
        <path id="Shape_168_" d="M23.066,13.568a2.161,2.161,0,0,0-2.982,0L17.1,16.551,6.836,26.815,1.618,32.034a2.109,2.109,0,0,0,0,2.982L8.982,42.38A2.1,2.1,0,0,0,10.474,43H21.032a.527.527,0,0,0,0-1.054H15.564l3.2-3.2L29.029,28.478,32.012,25.5a2.109,2.109,0,0,0,0-2.982Zm-5.591,4.1L27.912,28.106l-9.52,9.519L7.954,27.187Zm-4.35,24.275H10.474a1.047,1.047,0,0,1-.746-.309L2.364,34.271a1.054,1.054,0,0,1,0-1.491l4.846-4.846L17.647,38.371l-3.265,3.265a1.045,1.045,0,0,1-.745.308h-.512ZM31.266,24.751,28.657,27.36,18.219,16.922l2.609-2.609a1.054,1.054,0,0,1,1.491,0l8.946,8.946a1.054,1.054,0,0,1,0,1.491Z" transform="translate(-1 -12.972)"/>
        <path id="Shape_167_" d="M158.965,156.279a.527.527,0,0,0-.746,0l-4.846,4.845a.527.527,0,1,0,.745.745l4.846-4.846a.527.527,0,0,0,0-.744Z" transform="translate(-143.81 -147.281)"/>
        <path id="Shape_166_" d="M186.156,234.713a.527.527,0,0,0-.745,0l-1.863,1.863a.527.527,0,1,0,.745.745l1.863-1.863a.527.527,0,0,0,0-.745Z" transform="translate(-172.12 -220.87)"/>
        <path id="Shape_165_" d="M220.422,199.168a.527.527,0,1,0-.745-.745l-5.964,5.964a.527.527,0,1,0,.745.745Z" transform="translate(-200.421 -186.815)"/>
        <path id="Shape_164_" d="M352.453,483.018a.527.527,0,1,0,0-1.054H351.4a.527.527,0,1,0,0,1.054Z" transform="translate(-329.259 -452.992)"/>
      </g>
    </g>
  </g>
</svg>
