<svg xmlns="http://www.w3.org/2000/svg" width="28.408" height="29" viewBox="0 0 28.408 29">
  <g id="save" transform="translate(-0.5)">
    <path id="Path_18" data-name="Path 18" d="M23.827,0H.5V29H28.908V5.082ZM21.214,1.184V9.469H7.01V1.184ZM5.827,27.816V16.571H22.99V27.816Zm21.9,0H24.173V15.388H4.643V27.816H1.684V1.184H5.827v9.469H22.4V1.184h.939l4.388,4.388Z"/>
    <path id="Path_19" data-name="Path 19" d="M13.092,32.184h4.143a.592.592,0,0,0,0-1.184H13.092a.592.592,0,0,0,0,1.184Z" transform="translate(-4.898 -12.653)"/>
    <path id="Path_20" data-name="Path 20" d="M19.01,35H13.092a.592.592,0,1,0,0,1.184H19.01a.592.592,0,1,0,0-1.184Z" transform="translate(-4.898 -14.286)"/>
    <path id="Path_21" data-name="Path 21" d="M25.672,35.177a.6.6,0,0,0,0,.84.609.609,0,0,0,.42.172.593.593,0,1,0-.42-1.012Z" transform="translate(-10.204 -14.291)"/>
    <path id="Path_22" data-name="Path 22" d="M31.051,4H27.5V9.918h3.551ZM29.867,8.735H28.684V5.184h1.184Z" transform="translate(-11.02 -1.633)"/>
  </g>
</svg>
