<?xml version="1.0" encoding="iso-8859-1"?>
<!-- Generator: Adobe Illustrator 19.0.0, SVG Export Plug-In . SVG Version: 6.00 Build 0)  -->
<svg version="1.1" id="Capa_1" xmlns="http://www.w3.org/2000/svg" xmlns:xlink="http://www.w3.org/1999/xlink" x="0px" y="0px"
	 viewBox="0 0 512.005 512.005" style="enable-background:new 0 0 512.005 512.005;" xml:space="preserve">
		<path d="M362.672,74.669H117.339c-5.888,0-10.667,4.779-10.667,10.667s4.779,10.667,10.667,10.667h245.333
			c70.592,0,128,57.408,128,128s-57.408,128-128,128H36.421l45.781-45.781c4.16-4.16,4.16-10.923,0-15.083
			c-4.16-4.16-10.923-4.16-15.083,0L3.141,355.117c-0.981,0.981-1.771,2.176-2.325,3.477c-1.088,2.603-1.088,5.547,0,8.149
			c0.533,1.323,1.323,2.496,2.325,3.477L67.12,434.2c2.091,2.091,4.821,3.136,7.552,3.136c2.731,0,5.461-1.045,7.552-3.115
			c4.16-4.16,4.16-10.923,0-15.083l-45.803-45.803h326.251c82.347,0,149.333-66.987,149.333-149.333S445.019,74.669,362.672,74.669z
			"/>
</svg>
