<svg xmlns="http://www.w3.org/2000/svg" width="25.529" height="30.001" viewBox="0 0 25.529 30.001">
  <g id="garbage" transform="translate(-36.305)">
    <path id="Path_23" data-name="Path 23" d="M314.636,181.132l-1.272-.113L312.039,195.8l1.272.113Z" transform="translate(-258.752 -169.869)"/>
    <rect id="Rectangle_48" data-name="Rectangle 48" width="1.277" height="14.783" transform="translate(48.431 11.206)"/>
    <path id="Path_24" data-name="Path 24" d="M135.5,195.8l-1.326-14.783-1.272.113,1.326,14.783Z" transform="translate(-90.648 -169.869)"/>
    <path id="Path_25" data-name="Path 25" d="M61.2,4.017H54.247C54.108,1.783,51.839,0,49.07,0s-5.039,1.783-5.178,4.017H36.943a.638.638,0,0,0-.638.638V7.83a.638.638,0,0,0,.638.638h1.142L39.99,29.421a.638.638,0,0,0,.636.58H57.513a.638.638,0,0,0,.636-.58L60.054,8.468H61.2a.638.638,0,0,0,.638-.638V4.655A.638.638,0,0,0,61.2,4.017ZM56.93,28.725H41.209L39.367,8.47h19.4ZM49.07,1.277c2.058,0,3.75,1.211,3.9,2.74H45.172C45.32,2.487,47.011,1.277,49.07,1.277ZM60.558,7.192H37.582v-1.9H60.558Z"/>
  </g>
</svg>
