<svg xmlns="http://www.w3.org/2000/svg" width="20.15" height="20.667" viewBox="0 0 20.15 20.667">
  <g id="repeat" transform="translate(-5.167 -5.166)">
    <path id="Path_26" data-name="Path 26" d="M22.878,15.166l-4.4,3.2a.517.517,0,0,0,.608.835l6.258-4.551L19.087,10.1a.516.516,0,0,0-.607.835l4.4,3.2H16.717A6.724,6.724,0,0,0,10,20.85a.517.517,0,0,0,1.033,0,5.69,5.69,0,0,1,5.683-5.683Z" transform="translate(-4.833 -4.833)"/>
    <path id="Path_28" data-name="Path 28" d="M34.128,28a.516.516,0,0,0-.517.517A5.69,5.69,0,0,1,27.928,34.2H21.767l4.4-3.2a.516.516,0,1,0-.607-.835L19.3,34.717l6.258,4.551a.517.517,0,1,0,.608-.835l-4.4-3.2h6.161a6.724,6.724,0,0,0,6.717-6.717A.516.516,0,0,0,34.128,28Z" transform="translate(-9.328 -13.533)"/>
  </g>
</svg>
