<svg xmlns="http://www.w3.org/2000/svg" width="32.5" height="32.5" viewBox="0 0 32.5 32.5">
  <g id="ruler_2_" data-name="ruler (2)" transform="translate(0.001 0.001)">
    <g id="Group_35" data-name="Group 35" transform="translate(-0.001 -0.001)">
      <g id="Group_34" data-name="Group 34" transform="translate(0 0)">
        <path id="Path_9" data-name="Path 9" d="M32.341,6.659l-6.5-6.5a.541.541,0,0,0-.766,0L.158,25.075a.541.541,0,0,0,0,.766l6.5,6.5a.541.541,0,0,0,.766,0L32.341,7.425a.542.542,0,0,0,0-.766ZM7.042,31.192,1.307,25.458,25.458,1.307l5.734,5.734Z" transform="translate(0.001 0.001)"/>
      </g>
    </g>
    <g id="Group_37" data-name="Group 37" transform="translate(24.376 4.874)">
      <g id="Group_36" data-name="Group 36">
        <path id="Path_10" data-name="Path 10" d="M385.655,76.8a1.625,1.625,0,1,0,1.625,1.625A1.627,1.627,0,0,0,385.655,76.8Zm0,2.167a.542.542,0,1,1,.542-.542A.542.542,0,0,1,385.655,78.964Z" transform="translate(-384.03 -76.797)"/>
      </g>
    </g>
    <g id="Group_39" data-name="Group 39" transform="translate(20.201 5.033)">
      <g id="Group_38" data-name="Group 38" transform="translate(0 0)">
        <rect id="Rectangle_27" data-name="Rectangle 27" width="1.083" height="2.298" transform="translate(0 0.766) rotate(-45)"/>
      </g>
    </g>
    <g id="Group_41" data-name="Group 41" transform="translate(18.576 6.658)">
      <g id="Group_40" data-name="Group 40" transform="translate(0 0)">
        <rect id="Rectangle_28" data-name="Rectangle 28" width="1.083" height="3.064" transform="translate(0 0.766) rotate(-45)"/>
      </g>
    </g>
    <g id="Group_43" data-name="Group 43" transform="translate(16.951 8.283)">
      <g id="Group_42" data-name="Group 42" transform="translate(0 0)">
        <rect id="Rectangle_29" data-name="Rectangle 29" width="1.083" height="2.298" transform="translate(0 0.766) rotate(-45)"/>
      </g>
    </g>
    <g id="Group_45" data-name="Group 45" transform="translate(15.326 9.908)">
      <g id="Group_44" data-name="Group 44" transform="translate(0 0)">
        <rect id="Rectangle_30" data-name="Rectangle 30" width="1.083" height="3.064" transform="translate(0 0.766) rotate(-45)"/>
      </g>
    </g>
    <g id="Group_47" data-name="Group 47" transform="translate(13.701 11.533)">
      <g id="Group_46" data-name="Group 46" transform="translate(0 0)">
        <rect id="Rectangle_31" data-name="Rectangle 31" width="1.083" height="2.298" transform="translate(0 0.766) rotate(-45)"/>
      </g>
    </g>
    <g id="Group_49" data-name="Group 49" transform="translate(12.075 13.157)">
      <g id="Group_48" data-name="Group 48" transform="translate(0 0)">
        <rect id="Rectangle_32" data-name="Rectangle 32" width="1.083" height="3.064" transform="translate(0 0.766) rotate(-45)"/>
      </g>
    </g>
    <g id="Group_51" data-name="Group 51" transform="translate(10.45 14.782)">
      <g id="Group_50" data-name="Group 50" transform="translate(0 0)">
        <rect id="Rectangle_33" data-name="Rectangle 33" width="1.083" height="2.298" transform="matrix(0.707, -0.707, 0.707, 0.707, 0, 0.766)"/>
      </g>
    </g>
    <g id="Group_53" data-name="Group 53" transform="translate(8.825 16.408)">
      <g id="Group_52" data-name="Group 52" transform="translate(0 0)">
        <rect id="Rectangle_34" data-name="Rectangle 34" width="1.083" height="3.064" transform="translate(0 0.766) rotate(-45)"/>
      </g>
    </g>
    <g id="Group_55" data-name="Group 55" transform="translate(7.2 18.033)">
      <g id="Group_54" data-name="Group 54" transform="translate(0 0)">
        <rect id="Rectangle_35" data-name="Rectangle 35" width="1.083" height="2.298" transform="translate(0 0.766) rotate(-45)"/>
      </g>
    </g>
    <g id="Group_57" data-name="Group 57" transform="translate(5.575 19.658)">
      <g id="Group_56" data-name="Group 56" transform="translate(0 0)">
        <rect id="Rectangle_36" data-name="Rectangle 36" width="1.083" height="3.064" transform="translate(0 0.766) rotate(-45)"/>
      </g>
    </g>
    <g id="Group_59" data-name="Group 59" transform="translate(3.951 21.284)">
      <g id="Group_58" data-name="Group 58" transform="translate(0 0)">
        <rect id="Rectangle_37" data-name="Rectangle 37" width="1.083" height="2.298" transform="translate(0 0.766) rotate(-45)"/>
      </g>
    </g>
    <g id="Group_61" data-name="Group 61" transform="translate(2.325 22.909)">
      <g id="Group_60" data-name="Group 60" transform="translate(0 0)">
        <rect id="Rectangle_38" data-name="Rectangle 38" width="1.083" height="3.064" transform="translate(0 0.766) rotate(-45)"/>
      </g>
    </g>
  </g>
</svg>
