<svg xmlns="http://www.w3.org/2000/svg" width="33.5" height="34.792" viewBox="0 0 33.5 34.792">
  <g id="zoom-in" transform="translate(-0.983)">
    <path id="Path_11" data-name="Path 11" d="M23.836,17.6H19.895V13.657a.657.657,0,0,0-1.314,0V17.6H14.64a.657.657,0,1,0,0,1.314h3.941v3.941a.657.657,0,0,0,1.314,0V18.912h3.941a.657.657,0,1,0,0-1.314Z" transform="translate(-4.461 -4.461)"/>
    <path id="Path_12" data-name="Path 12" d="M34.3,33.68,24.54,23.529a13.805,13.805,0,1,0-.971.885L33.353,34.59a.657.657,0,1,0,.947-.91ZM2.3,13.794a12.48,12.48,0,1,1,12.48,12.48A12.494,12.494,0,0,1,2.3,13.794Z" transform="translate(0 0)"/>
  </g>
</svg>
