<svg version="1.1" id="Layer_1" xmlns="http://www.w3.org/2000/svg" xmlns:xlink="http://www.w3.org/1999/xlink" x="0px" y="0px" width="841.89px" height="1190.55px" viewBox="0 0 841.89 1190.55" enable-background="new 0 0 841.89 1190.55" xml:space="preserve">
<g>
	<rect x="42.227" y="48.705" fill="#FFFFFF" stroke="#000000" stroke-miterlimit="10" width="300" height="49.286"></rect>
	<text transform="matrix(1 0 0 1 109.3926 79.4189)" font-family="'MyriadPro-Regular'" font-size="12">Product (Alcedo dining armchair)</text>
</g>
<g>
	<rect x="88.893" y="105.372" fill="#FFFFFF" stroke="#000000" stroke-miterlimit="10" width="300" height="49.286"></rect>
	<text transform="matrix(1 0 0 1 208.396 136.0859)" font-family="'MyriadPro-Regular'" font-size="12">Part (Frame)</text>
</g>
<g>
	<rect x="89.227" y="660.371" fill="#FFFFFF" stroke="#000000" stroke-miterlimit="10" width="300" height="49.287"></rect>
	<text transform="matrix(1 0 0 1 209.2334 691.0859)" font-family="'MyriadPro-Regular'" font-size="12">Part (Fabric)</text>
</g>
<g>
	<rect x="150.227" y="161.705" fill="#FFFFFF" stroke="#000000" stroke-miterlimit="10" width="300" height="49.286"></rect>
	<text transform="matrix(1 0 0 1 258.4438 192.4194)" font-family="'MyriadPro-Regular'" font-size="12">Material 1 (Steel)</text>
</g>
<g>
	<rect x="150.227" y="518.705" fill="#FFFFFF" stroke="#000000" stroke-miterlimit="10" width="300" height="49.286"></rect>
	<text transform="matrix(1 0 0 1 246.2759 549.4194)" font-family="'MyriadPro-Regular'" font-size="12">Material 2 (Aluminim)</text>
</g>
<g>
	<rect x="225.227" y="303.705" fill="#FFFFFF" stroke="#000000" stroke-miterlimit="10" width="300" height="49.286"></rect>
	<text transform="matrix(1 0 0 1 290.5386 334.4194)" font-family="'MyriadPro-Regular'" font-size="12">Material Type1 (Brushed stainless)</text>
</g>
<g>
	<rect x="225.893" y="405.372" fill="#FFFFFF" stroke="#000000" stroke-miterlimit="10" width="300" height="49.286"></rect>
	<text transform="matrix(1 0 0 1 274.0449 436.0864)" font-family="'MyriadPro-Regular'" font-size="12">Material Type2 (Powder coated stainless)</text>
</g>
<g>
	<rect x="92.227" y="1053.371" fill="#FFFFFF" stroke="#000000" stroke-miterlimit="10" width="300" height="49.287"></rect>
	<text transform="matrix(1 0 0 1 225.9556 1084.0859)" font-family="'MyriadPro-Regular'" font-size="12">Part ....</text>
</g>
<g>
	<rect x="432.712" y="127.213" fill="#FFFFFF" stroke="#000000" stroke-miterlimit="10" width="300" height="49.286"></rect>
	<text transform="matrix(1 0 0 1 504.4922 157.9277)" font-family="'MyriadPro-Regular'" font-size="12">Material Property 1 Water resist</text>
</g>
<g>
	<rect x="431.697" y="167.22" fill="#FFFFFF" stroke="#000000" stroke-miterlimit="10" width="300" height="49.286"></rect>
	<text transform="matrix(1 0 0 1 512.291 197.9341)" font-family="'MyriadPro-Regular'" font-size="12">Material Property 2 Easy dry</text>
</g>
<g>
	<rect x="431.682" y="204.724" fill="#FFFFFF" stroke="#000000" stroke-miterlimit="10" width="300" height="49.286"></rect>
	<text transform="matrix(1 0 0 1 533.3896 235.4385)" font-family="'MyriadPro-Regular'" font-size="12">Material Property ...</text>
</g>
<g>
	<rect x="502.193" y="278.212" fill="#FFFFFF" stroke="#000000" stroke-miterlimit="10" width="300" height="49.286"></rect>
	<text transform="matrix(1 0 0 1 573.9736 308.9268)" font-family="'MyriadPro-Regular'" font-size="12">Material Property 1 Water resist</text>
</g>
<g>
	<rect x="501.164" y="325.723" fill="#FFFFFF" stroke="#000000" stroke-miterlimit="10" width="300" height="49.286"></rect>
	<text transform="matrix(1 0 0 1 602.8711 356.4375)" font-family="'MyriadPro-Regular'" font-size="12">Material Property ...</text>
</g>
<g>
	<rect x="495.193" y="394.212" fill="#FFFFFF" stroke="#000000" stroke-miterlimit="10" width="300" height="49.286"></rect>
	<text transform="matrix(1 0 0 1 566.9736 424.9268)" font-family="'MyriadPro-Regular'" font-size="12">Material Property 1 Water resist</text>
</g>
<g>
	<rect x="494.164" y="431.723" fill="#FFFFFF" stroke="#000000" stroke-miterlimit="10" width="300" height="49.286"></rect>
	<text transform="matrix(1 0 0 1 595.8711 462.4375)" font-family="'MyriadPro-Regular'" font-size="12">Material Property ...</text>
</g>
<g>
	<rect x="432.705" y="529.188" fill="#FFFFFF" stroke="#000000" stroke-miterlimit="10" width="299.999" height="49.286"></rect>
	<text transform="matrix(1 0 0 1 529.2109 559.9019)" font-family="'MyriadPro-Regular'" font-size="12">Material Properties ....</text>
</g>
<g>
	<rect x="152.885" y="727.858" fill="#FFFFFF" stroke="#000000" stroke-miterlimit="10" width="300" height="49.286"></rect>
	<text transform="matrix(1 0 0 1 258.3125 758.5723)" font-family="'MyriadPro-Regular'" font-size="12">Materia 1 (Textile)</text>
</g>
<g>
	<rect x="244.705" y="591.188" fill="#FFFFFF" stroke="#000000" stroke-miterlimit="10" width="299.999" height="49.286"></rect>
	<text transform="matrix(1 0 0 1 354.4463 621.9023)" font-family="'MyriadPro-Regular'" font-size="12">Material types ...</text>
</g>
<g>
	<rect x="498.69" y="595.689" fill="#FFFFFF" stroke="#000000" stroke-miterlimit="10" width="299.999" height="49.286"></rect>
	<text transform="matrix(1 0 0 1 595.1953 626.4043)" font-family="'MyriadPro-Regular'" font-size="12">Material Properties ....</text>
</g>
<g>
	<rect x="416.698" y="700.195" fill="#FFFFFF" stroke="#000000" stroke-miterlimit="10" width="300" height="49.287"></rect>
	<text transform="matrix(1 0 0 1 488.4785 730.9102)" font-family="'MyriadPro-Regular'" font-size="12">Material Property 1 Water resist</text>
</g>
<g>
	<rect x="415.668" y="737.707" fill="#FFFFFF" stroke="#000000" stroke-miterlimit="10" width="300" height="49.285"></rect>
	<text transform="matrix(1 0 0 1 517.376 768.4209)" font-family="'MyriadPro-Regular'" font-size="12">Material Property ...</text>
</g>
<g>
	<rect x="228.721" y="799.196" fill="#FFFFFF" stroke="#000000" stroke-miterlimit="10" width="300" height="49.286"></rect>
	<text transform="matrix(1 0 0 1 360.9258 829.9102)" font-family="'MyriadPro-Regular'" font-size="12">Color 1</text>
</g>
<g>
	<rect x="227.716" y="851.685" fill="#FFFFFF" stroke="#000000" stroke-miterlimit="10" width="300" height="49.286"></rect>
	<text transform="matrix(1 0 0 1 359.2734 882.3984)" font-family="'MyriadPro-Regular'" font-size="12">Color ...</text>
</g>
<g>
	<rect x="154.885" y="936.858" fill="#FFFFFF" stroke="#000000" stroke-miterlimit="10" width="300" height="49.286"></rect>
	<text transform="matrix(1 0 0 1 260.3125 967.5723)" font-family="'MyriadPro-Regular'" font-size="12">Materia 2 (Textile)</text>
</g>
<g>
	<rect x="412.185" y="936.68" fill="#FFFFFF" stroke="#000000" stroke-miterlimit="10" width="300" height="49.287"></rect>
	<text transform="matrix(1 0 0 1 512.6504 967.3945)" font-family="'MyriadPro-Regular'" font-size="12">Material Property ....</text>
</g>
<g>
	<rect x="226.092" y="997.426" fill="#FFFFFF" stroke="#000000" stroke-miterlimit="10" width="300" height="49.286"></rect>
	<text transform="matrix(1 0 0 1 357.6494 1028.1406)" font-family="'MyriadPro-Regular'" font-size="12">Color ...</text>
</g>
</svg>