<?xml version="1.0" encoding="utf-8"?>
<!-- Generator: Adobe Illustrator 16.0.0, SVG Export Plug-In . SVG Version: 6.00 Build 0)  -->
<!DOCTYPE svg PUBLIC "-//W3C//DTD SVG 1.1//EN" "http://www.w3.org/Graphics/SVG/1.1/DTD/svg11.dtd">
<svg version="1.1" id="Layer_1" xmlns="http://www.w3.org/2000/svg" xmlns:xlink="http://www.w3.org/1999/xlink" x="0px" y="0px"
	 width="177.109px" height="77.919px" viewBox="0 0 177.109 77.919" enable-background="new 0 0 177.109 77.919"
	 xml:space="preserve">
<g>
	<g>
		<path fill="#010101" d="M90.693,32.354h-0.107c-1.271-2.597-4.027-4.558-7.841-4.558c-7.104,0-12.297,5.193-12.297,15.053
			c0,10.176,4.875,14.521,11.818,14.521c4.4,0,7.156-2.439,8.585-5.035h0.16v4.346h6.836V14.918h-7.154V32.354z M90.798,44.598
			c0,4.451-2.437,7.791-6.677,7.791c-4.611,0-6.414-3.816-6.414-9.752c0-6.361,2.385-9.752,6.68-9.752
			c3.867,0,6.412,3.18,6.412,8.48V44.598z"/>
		<rect x="14.115" y="16.137" fill="#010101" width="32.809" height="6.492"/>
		<path fill="#010101" d="M147.74,39.828l-4.613-0.637c-2.543-0.371-3.604-1.326-3.604-3.18c0-2.014,1.643-3.498,4.453-3.498
			c2.861,0,4.451,1.484,4.611,3.498h6.465c-0.424-4.982-3.922-8.268-10.971-8.268c-7.42,0-11.184,4.133-11.184,9.062
			c0,5.035,2.916,7.527,8.109,8.215l4.451,0.584c3.021,0.371,3.764,1.43,3.764,3.338c0,2.332-2.014,3.711-5.141,3.711
			c-3.922,0-5.141-2.068-5.354-4.082h-6.625c0.371,5.672,4.506,8.852,11.926,8.852c6.889,0,11.818-3.234,11.818-9.328
			C155.847,43.061,153.199,40.57,147.74,39.828z"/>
		<rect x="26.836" y="28.434" fill="#010101" width="7.367" height="28.248"/>
		<path fill="#010101" d="M53.086,27.744c-8.533,0-13.779,5.723-13.779,14.785c0,9.117,4.982,14.842,13.727,14.842
			c8.27,0,13.729-5.725,13.729-14.842C66.762,33.414,61.619,27.744,53.086,27.744z M53.086,52.389c-4.559,0-6.412-3.869-6.412-9.859
			c0-5.775,1.854-9.857,6.359-9.857c4.611,0,6.359,3.977,6.359,9.857C59.393,48.361,57.697,52.389,53.086,52.389z"/>
		<path fill="#010101" d="M121.382,43.855c0,5.248-2.068,8.109-6.309,8.109c-1.695,0-3.021-0.531-3.816-1.695
			c-0.848-1.166-0.953-3.021-0.953-5.035V28.434h-7.049v19.133c0,6.623,3.127,9.699,9.434,9.699c4.559,0,7.473-2.385,8.852-5.248
			h0.105v4.664h6.838V28.434h-7.102V43.855z"/>
	</g>
</g>
</svg>
